<?xml version="1.0" standalone="no"?>
<!DOCTYPE svg PUBLIC "-//W3C//DTD SVG 1.1//EN" "http://www.w3.org/Graphics/SVG/1.1/DTD/svg11.dtd" >
<svg xmlns="http://www.w3.org/2000/svg">
<metadata></metadata>
<defs>
<font id="merloroundserifRgIt" horiz-adv-x="1654" >
<font-face units-per-em="2048" ascent="1434" descent="-614" />
<missing-glyph horiz-adv-x="411" />
<glyph horiz-adv-x="0" />
<glyph horiz-adv-x="682" />
<glyph unicode=" "  horiz-adv-x="411" />
<glyph unicode="&#x09;" horiz-adv-x="411" />
<glyph unicode="&#xa0;" horiz-adv-x="411" />
<glyph unicode="!" horiz-adv-x="458" d="M287 322q-23 0 -30 8.5t-3 31.5l190 1031q4 23 15.5 32t34.5 9h28q23 0 30.5 -9t2.5 -32l-211 -1031q-4 -23 -15 -31.5t-34 -8.5h-8zM158 78q6 35 36.5 60.5t65.5 25.5t55.5 -25.5t14.5 -60.5q-8 -35 -38 -60.5t-65 -25.5t-55.5 25.5t-13.5 60.5z" />
<glyph unicode="&#x22;" horiz-adv-x="587" d="M424 1497q-15 0 -25.5 -10.5t-11.5 -28.5l-20 -305q-2 -12 4 -20.5t18 -8.5q24 0 35 29l98 305q6 18 0 28.5t-20 10.5h-78zM668 1497q-15 0 -25.5 -10.5t-11.5 -28.5l-21 -305q-2 -12 4.5 -20.5t18.5 -8.5q24 0 35 29l98 305q6 18 -0.5 28.5t-20.5 10.5h-77z" />
<glyph unicode="#" horiz-adv-x="1599" d="M371 891q-23 0 -30.5 9t-2.5 32l4 24q4 23 15 32t34 9h404l127 396q8 23 19 32t34 9h29q23 0 29 -9t-1 -32l-127 -396h254l127 396q8 23 19 32t34 9h29q23 0 29.5 -9t-0.5 -32l-127 -396h379q23 0 30 -9t2 -32l-4 -24q-4 -23 -15 -32t-34 -9h-391l-86 -270h369 q24 0 32 -9t2 -32l-6 -25q-6 -24 -16 -32.5t-33 -8.5h-383l-149 -473q-8 -24 -18.5 -32.5t-33.5 -8.5h-28q-24 0 -31 9t0 32l150 473h-254l-150 -473q-8 -24 -18 -32.5t-33 -8.5h-29q-24 0 -30.5 9t0.5 32l149 473h-399q-24 0 -31.5 9t-1.5 32l6 25q6 24 15 32.5t32 8.5h414 l86 270h-391zM786 621h254l86 270h-254z" />
<glyph unicode="$" horiz-adv-x="1107" d="M1147 1186q-23 0 -30.5 9t-2.5 32l8 39q-120 77 -258 77q-161 0 -254.5 -71t-113.5 -166q-13 -67 16.5 -123.5t85.5 -97t125.5 -78.5t138.5 -79t123.5 -88t81 -115.5t10.5 -151.5q-30 -153 -162.5 -257.5t-298.5 -119.5l-18 -98q-4 -23 -15 -32t-34 -9h-25q-23 0 -30 9 t-2 32l18 98q-165 13 -277 104l-12 -59q-5 -24 -14.5 -32.5t-32.5 -8.5h-16q-24 0 -31.5 9t-3.5 32l33 166q4 23 15 32t34 9h12q21 0 33 -12q15 -17 34 -34t61.5 -46.5t105 -47.5t133.5 -18q137 0 248 79t133 193q10 51 -2 94.5t-40 76.5t-68.5 64.5t-88 56.5t-96.5 53.5 t-96 55.5t-86.5 63t-66.5 75.5t-36.5 92t2.5 114.5q23 121 131.5 213t272.5 115l18 100q4 23 15 32t34 9h25q23 0 30 -9t2 -32l-18 -94q127 -5 246 -72l4 23q4 23 15 32t34 9h16q23 0 30.5 -9t2.5 -32l-33 -166q-4 -23 -15 -32t-34 -9h-16z" />
<glyph unicode="%" horiz-adv-x="1181" d="M487 1020q-85 0 -135 62t-33 147q17 88 91 150.5t159 62.5q88 0 138.5 -62.5t33.5 -150.5q-17 -85 -92 -147t-162 -62zM1087 1389q15 25 27.5 35t34.5 10h27q42 0 16 -45l-815 -1344q-15 -26 -25.5 -35.5t-32.5 -9.5h-26q-20 0 -26.5 11t5.5 34zM406 1227 q-10 -54 17.5 -88.5t80.5 -34.5q57 0 98.5 34.5t52.5 88.5q11 55 -17.5 91t-84.5 36q-52 0 -94 -36.5t-53 -90.5zM885 -8q-85 0 -135 62t-33 147q17 88 91 150.5t159 62.5q88 0 138.5 -62.5t33.5 -150.5q-17 -85 -92 -147t-162 -62zM801 199q-9 -54 19 -88.5t81 -34.5 q57 0 99 34.5t51 88.5q11 55 -18 91t-85 36q-52 0 -94 -36.5t-53 -90.5z" />
<glyph unicode="&#x26;" horiz-adv-x="1122" d="M291 418q-29 -156 47 -242t215 -86q141 0 246 80.5t131 210.5l53 276q4 23 15 32t34 9h185q23 0 30.5 -9t1.5 -32l-4 -16q-6 -24 -16 -32.5t-33 -8.5h-98q-20 0 -23 -20l-35 -170q-18 -92 -57.5 -165.5t-90 -120t-112.5 -77t-122.5 -43t-122.5 -12.5q-88 0 -160.5 27.5 t-122.5 79.5t-69.5 134.5t-0.5 184.5q47 230 240 348q-124 105 -88 297q23 120 100 208t175.5 129.5t205.5 41.5q191 0 277 -125q22 -31 -11 -57l-16 -15q-35 -28 -55 0q-39 53 -90 75.5t-123 22.5q-127 0 -228 -72.5t-127 -207.5q-12 -63 -1 -117.5t53 -91.5t110 -37 q23 0 30.5 -9t2.5 -32l-4 -22q-4 -23 -15 -32t-34 -9q-110 0 -189 -86.5t-104 -208.5z" />
<glyph unicode="'" horiz-adv-x="344" d="M424 1497q-15 0 -25.5 -10.5t-11.5 -28.5l-20 -305q-2 -12 4 -20.5t18 -8.5q24 0 35 29l98 305q6 18 0 28.5t-20 10.5h-78z" />
<glyph unicode="(" horiz-adv-x="612" d="M342 145q-4 -24 -5.5 -31.5t-5 -32t-3 -35.5t1.5 -32.5t6.5 -32t14.5 -26.5t22.5 -24t33 -14.5t44.5 -8.5q24 -2 31 -10t1 -31l-4 -17q-6 -24 -16 -32.5t-33 -7.5q-135 6 -182.5 89t-16.5 248l222 1131q31 165 111 248.5t218 89.5q23 2 31 -8t2 -33l-4 -16 q-6 -24 -15 -32t-32 -9q-33 -2 -60 -12t-46 -23.5t-34.5 -35t-24.5 -39.5t-17 -45t-11 -42.5t-8 -40.5z" />
<glyph unicode=")" horiz-adv-x="612" d="M545 1280q19 102 11 145q-15 86 -118 93q-24 2 -32.5 10.5t-2.5 30.5l5 16q6 24 16.5 33t32.5 8q135 -6 182 -89.5t16 -248.5l-221 -1131q-31 -164 -111.5 -247.5t-218.5 -89.5q-23 -2 -30.5 7.5t-1.5 32.5l4 17q6 23 16 31t33 10q33 2 60 12t45.5 23t34 35t24 39 t16.5 45t11 42.5t8 40.5z" />
<glyph unicode="*" horiz-adv-x="868" d="M1044 1440q-6 -34 -19 -46t-42 -12h-147l84 -104q17 -22 12 -38t-33 -40q-24 -21 -39.5 -21t-34.5 21l-84 105l-28 -148q-4 -29 -18 -40t-44 -11h-6q-29 0 -37.5 10.5t-3.5 40.5l31 150l-129 -107q-25 -22 -41 -20.5t-35 24.5q-18 20 -15 36.5t29 37.5l125 104h-147 q-29 0 -38 11.5t-3 40.5q6 33 19 45t42 12h148l-84 104q-17 22 -14 38t28 36q28 23 44 24.5t34 -20.5l86 -106l29 149q6 29 19 40t42 11h6q29 0 38 -11t3 -40l-28 -147l125 104q27 21 42.5 21t30.5 -21q19 -23 17.5 -40t-27.5 -38l-125 -104h148q29 0 37.5 -11t2.5 -40z" />
<glyph unicode="+" horiz-adv-x="901" d="M659 825q-3 -12 1 -16t16 -4h237q24 0 31.5 -9t1.5 -32l-4 -16q-6 -24 -15 -32.5t-32 -8.5h-238q-12 0 -16.5 -4.5t-7.5 -16.5l-49 -248q-4 -23 -15 -32t-34 -9h-17q-23 0 -30.5 9t-2.5 32l50 248q3 12 -1 16.5t-16 4.5h-237q-24 0 -32.5 9t-2.5 32l4 16q6 24 16 32.5 t33 8.5h238q12 0 16.5 4t7.5 16l47 248q4 23 15 32t34 9h17q23 0 30.5 -9t2.5 -32z" />
<glyph unicode="," horiz-adv-x="419" d="M188 -8q-37 5 -56 29.5t-13 62.5q5 37 37.5 67t76.5 31q59 2 84.5 -40.5t14.5 -111t-53 -143.5q-58 -102 -136 -182q-22 -22 -34.5 -23t-22.5 13q-15 13 -15.5 21t15.5 28q92 94 123 173q26 69 -21 75z" />
<glyph unicode="-" horiz-adv-x="700" d="M190 516q-35 0 -24 41l4 16q6 25 12.5 33t20.5 8h440q36 0 25 -41l-4 -16q-6 -25 -12.5 -33t-20.5 -8h-441z" />
<glyph unicode="." horiz-adv-x="395" d="M119 86q8 40 40 68t72 28t62.5 -28t15.5 -68t-40.5 -67t-73.5 -27t-62 27t-14 67z" />
<glyph unicode="/" horiz-adv-x="481" d="M539 1389q15 45 57 45h20q43 0 31 -41l-428 -1348q-8 -24 -20 -34.5t-35 -10.5h-21q-44 0 -32 41z" />
<glyph unicode="0" horiz-adv-x="1122" d="M1112 694q-66 -346 -206 -524t-347 -178q-417 0 -283 702l11 45q66 347 205.5 525t347.5 178q206 0 277 -178t5 -525zM1008 725q122 618 -187 618q-306 0 -428 -618l-2 -16q-61 -296 -15 -457.5t202 -161.5q306 0 428 619z" />
<glyph unicode="1" horiz-adv-x="743" d="M248 57q6 24 16 32.5t33 8.5h82l225 1162l-246 -207q-33 -30 -57 0l-16 20q-13 18 -10 30t22 27l340 287q21 17 43 17h29q23 0 30 -9t2 -32l-252 -1295h82q24 0 31.5 -9t1.5 -32l-4 -16q-6 -24 -15 -32.5t-32 -8.5h-274q-24 0 -32.5 9t-2.5 32z" />
<glyph unicode="2" horiz-adv-x="991" d="M854 41q-5 -24 -14.5 -32.5t-32.5 -8.5h-643q-24 0 -31.5 9t-3.5 32l35 176q17 86 66.5 168.5t116 149t144 129.5t153.5 119t140 108.5t108 107.5t54 107q23 113 -42 175t-169 62q-120 0 -233 -94q-32 -27 -56 0l-8 11q-22 28 13 59q135 123 309 123q149 0 236 -94 t57 -242q-13 -68 -59 -134t-110 -121.5t-140 -112t-152.5 -116t-142 -121.5t-114.5 -140t-65 -162l-10 -60q-4 -31 0 -36t33 -5h475l20 109q4 23 15.5 32t34.5 9h16q23 0 30.5 -9t2.5 -32z" />
<glyph unicode="3" horiz-adv-x="1054" d="M883 418q25 121 -21.5 208t-156.5 87q-23 0 -30.5 9t-2.5 32l4 22q4 23 15 32t34 9q101 0 169 73t87 173q14 72 -3.5 129.5t-57 91t-95.5 49t-115 10.5t-118.5 -30t-104.5 -68q-32 -28 -55 0l-12 15q-22 28 10 57q140 125 326 125q79 0 146.5 -24.5t116.5 -70.5 t69 -119.5t2 -164.5q-35 -189 -203 -297q71 -55 99.5 -143t4.5 -205q-26 -135 -106 -234t-186 -145.5t-224 -46.5q-99 0 -180.5 34.5t-130.5 102.5q-25 35 12 64l12 10q41 35 62 0q36 -57 105 -88t150 -25.5t159 38.5t138.5 109.5t80.5 180.5z" />
<glyph unicode="4" horiz-adv-x="1036" d="M592 57q6 24 16 32.5t33 8.5h82l51 264q5 21 -16 21h-582q-23 0 -30.5 9t-2.5 32l2 14q7 38 29 64l789 903q26 29 57 29h33q23 0 30 -9t2 -32l-174 -891q-3 -21 17 -21h47q23 0 29.5 -8.5t3.5 -32.5l-2 -16q-3 -23 -14.5 -32t-35.5 -9h-47q-21 0 -24 -21l-51 -264h81 q24 0 31.5 -9t1.5 -32l-4 -16q-6 -24 -15 -32.5t-32 -8.5h-274q-24 0 -32.5 9t-2.5 32zM297 502q-7 -9 -4.5 -15t10.5 -6h473q22 0 25 21l139 715q2 8 -4 9.5t-12 -5.5z" />
<glyph unicode="5" horiz-adv-x="1015" d="M643 944q86 0 157.5 -29t121 -86.5t67.5 -143t-2 -198.5l-8 -38q-21 -109 -73.5 -197.5t-123.5 -144.5t-154 -85.5t-169 -29.5q-92 0 -173.5 32t-123.5 93q-22 32 10 57l16 14q36 29 56 0q72 -98 233 -98q144 0 253.5 96t146.5 281q37 187 -35.5 283t-216.5 96h-234 q-23 0 -30.5 9t-2.5 32l99 506q4 23 15 32t34 9h553q23 0 30.5 -9t2.5 -32l-33 -166q-4 -23 -15 -32t-34 -9h-17q-23 0 -30 9t-2 32l20 108h-385q-26 0 -35 -8t-14 -33l-60 -309q-5 -25 1 -33t32 -8h123z" />
<glyph unicode="6" horiz-adv-x="1069" d="M963 1348q-73 0 -142.5 -17.5t-141 -60.5t-129.5 -107.5t-104 -166t-69 -228.5q63 82 153.5 127.5t186.5 48.5q178 5 271 -116.5t52 -340.5l-8 -38q-43 -217 -182.5 -337t-317.5 -120q-86 0 -154.5 29t-114 86.5t-60.5 143t6 198.5l70 356q30 153 99.5 276t164 201 t206.5 119t232 41h8q23 0 30.5 -9t2.5 -32l-2 -12q-4 -23 -15 -32t-34 -9h-8zM551 90q142 0 242.5 96t138.5 289q36 183 -28.5 277t-205.5 94q-142 0 -242.5 -96t-138.5 -289q-36 -183 28.5 -277t205.5 -94z" />
<glyph unicode="7" horiz-adv-x="884" d="M961 1311q12 24 -11 24h-532l-21 -108q-4 -23 -15 -32t-34 -9h-16q-23 0 -30.5 9t-2.5 32l33 166q4 23 15 32t34 9h680q23 0 30.5 -9t2.5 -32l-7 -27q-6 -32 -16 -49l-754 -1276q-22 -41 -53 -41h-35q-19 0 -26.5 8t2.5 33z" />
<glyph unicode="8" horiz-adv-x="1142" d="M852 1442q99 0 171 -30.5t108 -81t50 -116.5t-3 -137q-43 -210 -224 -307q93 -48 129.5 -148t14.5 -219q-34 -175 -171 -293t-343 -118h-29q-84 0 -151 21.5t-110 59.5t-70 90t-30.5 112.5t7.5 127.5q23 120 98 219.5t188 147.5q-146 98 -104 307q14 73 50.5 137.5 t93 116t139.5 81.5t182 30h4zM494 1077q-24 -120 31 -191t196 -71h16q140 0 222.5 71t107.5 191q22 117 -31.5 190.5t-195.5 73.5h-17q-142 0 -224.5 -74t-104.5 -190zM311 403q-28 -140 38 -226.5t231 -86.5h16q165 0 264 86.5t127 226.5q26 139 -39.5 225.5t-230.5 86.5 h-17q-165 0 -264 -86.5t-125 -225.5z" />
<glyph unicode="9" horiz-adv-x="1069" d="M383 86q73 0 142.5 17.5t141 60.5t129.5 107.5t104 166t69 228.5q-63 -82 -154 -128t-186 -49q-178 -5 -271.5 116.5t-52.5 340.5l8 39q43 217 182.5 337t317.5 120q86 0 154.5 -29t114.5 -86.5t61 -143t-6 -198.5l-70 -356q-30 -153 -99.5 -276t-164 -201t-206.5 -119 t-232 -41h-105q-23 0 -30.5 9t-2.5 32l2 12q4 23 15.5 32t34.5 9h104zM795 1343q-142 0 -243 -96t-138 -289q-36 -183 28 -276.5t205 -93.5q142 0 243 96t138 289q36 183 -28 276.5t-205 93.5z" />
<glyph unicode=":" horiz-adv-x="395" d="M231 672q8 40 40.5 68t72.5 28t62.5 -28t15.5 -68q-7 -39 -41 -66.5t-74 -27.5t-62 27t-14 67zM119 86q8 40 40 68t72 28t62.5 -28t15.5 -68t-40.5 -67t-73.5 -27t-62 27t-14 67z" />
<glyph unicode=";" horiz-adv-x="419" d="M248 672q8 40 40 68t72 28t62.5 -28t15.5 -68t-40.5 -67t-73.5 -27t-62 27t-14 67zM188 -8q-37 5 -56 29.5t-13 62.5q5 37 37.5 67t76.5 31q59 2 84.5 -40.5t14.5 -111t-53 -143.5q-58 -102 -136 -182q-22 -22 -34.5 -23t-22.5 13q-15 13 -15.5 21t15.5 28q92 94 123 173 q26 69 -21 75z" />
<glyph unicode="&#x3c;" horiz-adv-x="712" d="M248 758q8 25 20 33l535 370q13 10 23 6t8 -18l-17 -80q-5 -24 -31 -41l-372 -258q-7 -4 -9 -12.5t3 -12.5l274 -258q19 -17 14 -41l-16 -79q-2 -14 -13 -18.5t-22 5.5l-391 371q-13 13 -6 33z" />
<glyph unicode="=" horiz-adv-x="942" d="M270 862q8 23 17.5 32t31.5 9h656q24 0 31.5 -9t1.5 -32l-4 -16q-6 -24 -16.5 -32.5t-33.5 -8.5h-655q-24 0 -31.5 9t-1.5 32zM231 666q8 23 18 32t32 9h655q24 0 31.5 -9t1.5 -32l-4 -17q-6 -24 -16.5 -32.5t-33.5 -8.5h-655q-24 0 -31.5 9t-1.5 32z" />
<glyph unicode="&#x3e;" horiz-adv-x="712" d="M756 758q-4 -22 -19 -33l-534 -371q-13 -10 -23.5 -5.5t-7.5 18.5l16 79q5 24 31 41l373 258q7 4 9 12.5t-3 12.5l-274 258q-20 17 -15 41l17 80q3 14 13 18t21 -6l392 -370q8 -8 4 -33z" />
<glyph unicode="?" horiz-adv-x="864" d="M682 1442q149 0 236 -94t57 -242q-12 -64 -39 -116.5t-61.5 -91t-74 -75t-80.5 -76.5t-77 -86t-66.5 -114t-46.5 -150q-4 -23 -15 -32t-34 -9h-28q-23 0 -30.5 9t-2.5 32l4 21q17 89 48.5 162t68.5 121.5t78 89.5t81 74.5t73.5 67t59 77.5t35.5 96q21 105 -44.5 171 t-166.5 66q-120 0 -233 -94q-32 -27 -55 0l-9 11q-22 28 13 59q135 123 309 123zM328 78q6 35 36.5 60.5t65.5 25.5t55.5 -25.5t14.5 -60.5q-8 -35 -38 -60.5t-65 -25.5t-55.5 25.5t-13.5 60.5z" />
<glyph unicode="@" horiz-adv-x="2193" d="M1522 983q4 23 15 32t34 9h24q23 0 30.5 -9t2.5 -32l-182 -940q-24 -121 48 -143q69 -21 182 55q135 91 233 256q81 136 110 289q33 172 -2.5 328t-124.5 268t-229 178.5t-307 66.5q-170 0 -338 -66.5t-302.5 -178.5t-231.5 -268t-130 -328q-32 -167 5 -319.5t127.5 -263 t233 -176t312.5 -65.5h4q20 0 26 -7.5t3 -26.5l-6 -37q-3 -19 -13 -27t-30 -8h-4q-189 0 -347 73.5t-259 198t-142 297t-4 361.5q37 191 145 364.5t257.5 298.5t336 199t375.5 74q190 0 348.5 -74t259 -199t141 -298.5t3.5 -364.5q-57 -292 -248 -497q-138 -147 -290 -194 q-134 -41 -206 20t-45 206l15 76q-61 -53 -122 -83t-143 -36q-178 -11 -267 112.5t-46 344.5l25 126q29 147 103 254.5t174 158.5t212 44q80 -5 129.5 -36t89.5 -83zM883 461q-36 -186 25 -281t202 -90q73 3 142 36t120 93l115 586q-29 60 -85 93t-128 36 q-138 5 -236.5 -90.5t-134.5 -280.5z" />
<glyph unicode="A" horiz-adv-x="1413" d="M999 1434q18 0 25 -1.5t13.5 -10.5t9.5 -29l196 -1295h66q23 0 30.5 -9t1.5 -32l-4 -16q-6 -24 -15 -32.5t-32 -8.5h-227q-24 0 -32.5 9t-2.5 32l4 16q6 24 16 32.5t33 8.5h49l-43 283q-3 19 -9.5 24t-26.5 5h-529q-21 0 -30 -5t-19 -24l-156 -283h50q23 0 30.5 -9 t1.5 -32l-4 -16q-6 -24 -15 -32.5t-32 -8.5h-225q-24 0 -32.5 9t-2.5 32l4 16q6 24 16 32.5t33 8.5h64l672 1237h-50q-23 0 -30.5 9t-1.5 32l4 17q6 24 16 32.5t33 8.5h151zM963 1255q-2 10 -10.5 10.5t-14.5 -10.5l-385 -725q-11 -22 10 -22h484q21 0 18 22z" />
<glyph unicode="B" horiz-adv-x="1200" d="M123 0q-24 0 -32.5 9t-2.5 32l4 16q6 24 16 32.5t33 8.5h80l242 1237h-82q-24 0 -31.5 9t-1.5 32l4 17q6 24 16 32.5t33 8.5h521q74 0 133.5 -15t97.5 -41t65 -61.5t37 -76t13 -83.5t-8 -86q-19 -95 -78.5 -179t-159.5 -134q102 -51 139 -148.5t15 -206.5 q-11 -59 -37.5 -115t-71.5 -109t-103.5 -92t-140.5 -63t-176 -24h-524zM825 805q76 2 138 28.5t100 67.5t61 84t31 86q7 27 4.5 57.5t-8.5 59.5t-25 56t-45.5 47t-69 32t-96.5 12h-301q-31 0 -37 -5t-12 -36l-86 -448q-6 -31 -2 -36t35 -5h313zM494 707q-31 0 -37.5 -5 t-12.5 -36l-102 -527q-6 -31 -2 -36t35 -5h303q75 0 139.5 21.5t106.5 54t74.5 75t48.5 80.5t24 74q8 27 5 60t-8.5 67t-27 66t-51 56.5t-79.5 39.5t-113 15h-303z" />
<glyph unicode="C" horiz-adv-x="1304" d="M1395 1186q-23 0 -30.5 9t-2.5 32l8 41q-37 20 -61.5 32t-88.5 27.5t-133 15.5q-170 0 -327.5 -84t-266 -227.5t-141.5 -314.5q-34 -171 19 -315t178 -228t295 -84q150 0 311 76l8 41q4 23 15 32t34 9h17q23 0 30.5 -9t2.5 -32l-33 -166q-5 -24 -14.5 -32.5t-32.5 -8.5 h-17q-24 0 -31.5 9t-3.5 32l3 14q-147 -63 -308 -63q-196 0 -344 97.5t-212.5 264.5t-26.5 363q37 196 166.5 363t315.5 264.5t382 97.5q154 0 285 -64l4 15q6 24 16 32.5t33 8.5h16q23 0 30.5 -9t2.5 -32l-33 -166q-4 -23 -15 -32t-34 -9h-16z" />
<glyph unicode="D" horiz-adv-x="1468" d="M1505 717q-42 -218 -168.5 -381t-314 -249.5t-412.5 -86.5h-467q-24 0 -32 9t-2 32l4 16q6 24 16 32.5t33 8.5h80l241 1237h-82q-23 0 -30.5 9t-1.5 32l4 17q6 24 16 32.5t33 8.5h467q168 0 298.5 -50t211 -143t110 -225.5t-3.5 -298.5zM627 98q300 0 505.5 165 t262.5 454q55 289 -87 453.5t-442 164.5h-231q-31 0 -37 -5t-12 -36l-224 -1155q-6 -31 -2 -36t35 -5h232z" />
<glyph unicode="E" horiz-adv-x="1114" d="M1249 1434q23 0 30.5 -9t2.5 -32l-33 -166q-4 -23 -15 -32t-34 -9h-16q-23 0 -30.5 9t-2.5 32l20 108h-536q-31 0 -37 -5t-12 -36l-86 -448q-6 -31 -2 -36t34 -5h492q24 0 31.5 -9t1.5 -32l-4 -16q-6 -24 -15 -32.5t-32 -8.5h-492q-31 0 -37 -5t-12 -36l-103 -527 q-6 -31 -2 -36t35 -5h537l20 109q4 23 15 32t34 9h17q23 0 30.5 -9t2.5 -32l-33 -166q-5 -24 -14.5 -32.5t-32.5 -8.5h-828q-24 0 -32 9t-2 32l4 16q6 24 16 32.5t33 8.5h80l241 1237h-82q-23 0 -30.5 9t-1.5 32l4 17q6 24 16 32.5t33 8.5h827z" />
<glyph unicode="F" horiz-adv-x="1093" d="M113 57q5 22 15.5 31.5t33.5 9.5h80l241 1237h-82q-23 0 -30.5 9t-1.5 32l4 17q6 24 16 32.5t33 8.5h827q23 0 30.5 -9t2.5 -32l-33 -166q-4 -23 -15 -32t-34 -9h-16q-23 0 -30.5 9t-2.5 32l20 108h-536q-31 0 -37 -5t-12 -36l-86 -448q-6 -31 -2 -36t34 -5h492 q24 0 31.5 -9t1.5 -32l-4 -16q-6 -24 -15 -32.5t-32 -8.5h-492q-31 0 -37 -5t-12 -36l-113 -568h84q24 0 31.5 -9t1.5 -32l-4 -16q-6 -24 -15 -32.5t-32 -8.5h-275q-24 0 -32 9t-2 32z" />
<glyph unicode="G" horiz-adv-x="1474" d="M1087 1343q-170 0 -327.5 -84t-266 -227.5t-141.5 -314.5q-34 -171 19 -315t178 -228t295 -84q90 0 178.5 25.5t151 63t104 78.5t47.5 73l66 336q6 31 2 36t-35 5h-211l-21 -109q-4 -23 -15 -32t-34 -9h-16q-23 0 -30.5 9t-2.5 32l33 166q4 23 15 32t34 9h377 q23 0 30.5 -9t2.5 -32l-84 -430q-11 -57 -66 -117.5t-136 -110.5t-190.5 -82t-218.5 -32q-196 0 -344 97.5t-212.5 264.5t-26.5 363q28 148 107 281t191.5 231t260 155.5t305.5 57.5q241 0 407 -146q17 -15 -2 -34l-43 -43q-15 -15 -36 2q-139 122 -345 122z" />
<glyph unicode="H" horiz-adv-x="1372" d="M1507 1434q24 0 31.5 -9t1.5 -32l-4 -17q-6 -24 -16 -32.5t-33 -8.5h-82l-242 -1237h84q24 0 31.5 -9t1.5 -32l-4 -16q-6 -24 -15 -32.5t-32 -8.5h-275q-24 0 -32 9t-2 32l4 16q6 24 16 32.5t33 8.5h80l112 568q6 31 2.5 36t-34.5 5h-619q-31 0 -37 -5t-12 -36l-113 -568 h84q24 0 31.5 -9t1.5 -32l-4 -16q-6 -24 -15 -32.5t-32 -8.5h-275q-24 0 -32 9t-2 32l4 16q6 24 16 32.5t33 8.5h80l241 1237h-82q-23 0 -30.5 9t-1.5 32l4 17q6 24 16 32.5t33 8.5h274q24 0 31.5 -9t1.5 -32l-4 -17q-6 -24 -16 -32.5t-33 -8.5h-82l-94 -489q-6 -31 -2 -36 t34 -5h619q31 0 37 5t12 36l94 489h-82q-23 0 -30.5 9t-1.5 32l4 17q6 24 16 32.5t33 8.5h274z" />
<glyph unicode="I" horiz-adv-x="561" d="M373 1393q6 24 16 32.5t33 8.5h274q24 0 31.5 -9t1.5 -32l-4 -17q-6 -24 -16 -32.5t-33 -8.5h-82l-242 -1237h84q24 0 31.5 -9t1.5 -32l-4 -16q-6 -24 -15 -32.5t-32 -8.5h-275q-24 0 -32 9t-2 32l4 16q6 24 16 32.5t33 8.5h80l241 1237h-82q-23 0 -30.5 9t-1.5 32z" />
<glyph unicode="J" horiz-adv-x="950" d="M762 1393q6 24 16 32.5t33 8.5h274q24 0 31.5 -9t1.5 -32l-4 -17q-6 -24 -16 -32.5t-33 -8.5h-82l-195 -1007q-30 -148 -154.5 -242t-273.5 -94q-178 0 -264 123q-21 32 13 59l14 12q34 27 55 0q78 -96 195 -96q101 0 192.5 66.5t112.5 171.5l194 1007h-81q-24 0 -31.5 9 t-1.5 32z" />
<glyph unicode="K" horiz-adv-x="1253" d="M373 1393q6 24 16 32.5t33 8.5h274q24 0 31.5 -9t1.5 -32l-4 -17q-6 -24 -16 -32.5t-33 -8.5h-82l-117 -604q-1 -10 6 -13t15 5l737 696q17 15 45 15h129q24 0 31.5 -9t1.5 -32l-4 -17q-6 -24 -16 -32.5t-33 -8.5h-86l-590 -551q-15 -13 -16 -20.5t8 -24.5l366 -641h78 q24 0 31.5 -9t1.5 -32l-4 -16q-6 -24 -15.5 -32.5t-32.5 -8.5h-106q-29 0 -39 14l-373 652q-10 18 -28 0l-119 -111q-17 -15 -24 -26.5t-11 -34.5l-78 -396h84q24 0 31.5 -9t1.5 -32l-4 -16q-6 -24 -15 -32.5t-32 -8.5h-275q-24 0 -32 9t-2 32l4 16q6 24 16 32.5t33 8.5h80 l241 1237h-82q-23 0 -30.5 9t-1.5 32z" />
<glyph unicode="L" horiz-adv-x="995" d="M920 41q-5 -23 -15 -32t-33 -9h-729q-24 0 -32 9t-2 32l4 16q6 24 16 32.5t33 8.5h80l241 1237h-82q-23 0 -30.5 9t-1.5 32l4 17q6 24 16 32.5t33 8.5h274q24 0 31.5 -9t1.5 -32l-4 -17q-6 -24 -16 -32.5t-33 -8.5h-82l-232 -1196q-6 -31 -2 -36t35 -5h439l20 109 q4 23 15 32t34 9h17q23 0 30 -9t2 -32z" />
<glyph unicode="M" horiz-adv-x="1740" d="M1313 57q6 24 16 32.5t33 8.5h76l110 1008q1 6 -2.5 9.5t-8.5 1.5t-9 -9l-594 -1079q-9 -20 -19.5 -24.5t-29.5 -4.5h-29q-13 0 -19.5 1t-13 7.5t-8.5 20.5l-172 1077q-1 12 -11.5 12t-13.5 -12l-280 -1008h78q24 0 31.5 -9t1.5 -32l-5 -16q-6 -24 -15 -32.5t-32 -8.5 h-274q-24 0 -32.5 9t-2.5 32l4 16q6 24 16 32.5t33 8.5h86l344 1237h-77q-24 0 -31.5 9t-1.5 32l4 17q6 24 16 32.5t33 8.5h152q18 0 23.5 -4.5t8.5 -20.5l197 -1223q2 -8 8.5 -8.5t11.5 8.5l672 1223q9 15 17.5 20t27.5 5h152q24 0 31.5 -9t1.5 -32l-5 -17 q-6 -24 -16 -32.5t-33 -8.5h-75l-140 -1237h88q24 0 31.5 -9t1.5 -32l-4 -16q-6 -24 -15 -32.5t-32 -8.5h-275q-24 0 -32 9t-2 32z" />
<glyph unicode="N" horiz-adv-x="1468" d="M113 57q6 24 16 32.5t33 8.5h80l241 1237h-82q-23 0 -30.5 9t-1.5 32l4 17q6 24 16 32.5t33 8.5h143q9 0 14 -1t8.5 -5t5 -7t5.5 -12l561 -1153q5 -10 13 -8.5t10 12.5l209 1075h-82q-24 0 -31.5 9t-1.5 32l4 17q6 24 16 32.5t33 8.5h275q23 0 30.5 -9t1.5 -32l-4 -17 q-6 -24 -16 -32.5t-33 -8.5h-82l-252 -1294q-5 -24 -14.5 -32.5t-32.5 -8.5h-20q-16 0 -22 5t-13 20l-561 1153q-5 10 -13 8.5t-10 -12.5l-211 -1076h84q24 0 31.5 -9t1.5 -32l-4 -16q-6 -24 -15 -32.5t-32 -8.5h-275q-24 0 -32 9t-2 32z" />
<glyph unicode="O" d="M242 717q28 148 107 281t191.5 231t260 155.5t305.5 57.5q196 0 344.5 -97.5t213.5 -264.5t28 -363q-29 -148 -108.5 -281t-192.5 -231t-260.5 -155.5t-305.5 -57.5q-196 0 -344 97.5t-212.5 264.5t-26.5 363zM352 717q-34 -171 19 -315t178 -228t295 -84q127 0 251 49.5 t222 134t168.5 200t95.5 243.5q33 171 -20.5 314.5t-178.5 227.5t-295 84t-327.5 -84t-266 -227.5t-141.5 -314.5z" />
<glyph unicode="P" horiz-adv-x="1163" d="M92 57q6 24 16 32.5t33 8.5h80l242 1237h-82q-24 0 -31.5 9t-1.5 32l4 17q6 24 16 32.5t33 8.5h453q158 0 257 -62t131 -163t7 -230q-18 -96 -64 -177.5t-117 -144t-172 -98t-220 -35.5h-219q-31 0 -37 -5t-12 -36l-76 -385h84q24 0 31.5 -9t1.5 -32l-5 -16 q-6 -24 -15 -32.5t-32 -8.5h-274q-24 0 -32.5 9t-2.5 32zM442 664q-4 -31 0 -36t35 -5h213q196 0 310 97.5t145 258.5q17 75 5 140t-46.5 113t-105.5 75.5t-171 27.5h-213q-31 0 -37 -5t-12 -36z" />
<glyph unicode="Q" d="M242 717q28 148 107 281t191.5 231t260 155.5t305.5 57.5q196 0 344.5 -97.5t213.5 -264.5t28 -363q-46 -232 -212 -420.5t-386 -259.5l151 -365q7 -18 -0.5 -29.5t-23.5 -11.5h-21q-32 0 -40 5.5t-21 39.5l-140 334q-85 -18 -174 -18q-196 0 -344 97.5t-212.5 264.5 t-26.5 363zM352 717q-34 -171 19 -315t178 -228t295 -84q120 0 242.5 50t222.5 133.5t173.5 200t98.5 243.5q33 171 -20.5 314.5t-178.5 227.5t-295 84t-327.5 -84t-266 -227.5t-141.5 -314.5z" />
<glyph unicode="R" horiz-adv-x="1296" d="M113 57q6 24 16 32.5t33 8.5h80l241 1237h-82q-23 0 -30.5 9t-1.5 32l4 17q6 24 16 32.5t33 8.5h516q96 0 170.5 -20t122 -56.5t76.5 -87t33.5 -111.5t-7.5 -131q-30 -157 -140 -263t-292 -134l213 -533h78q24 0 31.5 -9t1.5 -32l-4 -16q-6 -24 -15 -32.5t-32 -8.5h-269 q-24 0 -32.5 9t-2.5 32l4 16q6 24 16.5 32.5t33.5 8.5h71l-207 525h-290q-31 0 -37 -5t-12 -36l-97 -484h84q24 0 31.5 -9t1.5 -32l-4 -16q-6 -24 -15 -32.5t-32 -8.5h-275q-24 0 -32 9t-2 32zM483 762q-6 -31 -2 -36t35 -5h311q91 0 165.5 26.5t122.5 71.5t77.5 97.5 t40.5 111.5q7 46 6 89.5t-21 83t-52.5 69.5t-89 47.5t-130.5 17.5h-311q-31 0 -37 -5t-12 -36z" />
<glyph unicode="S" horiz-adv-x="1093" d="M1133 1186q-23 0 -30.5 9t-2.5 32l8 39q-120 77 -258 77q-161 0 -255 -71t-114 -166q-10 -53 6 -99t51 -81t83.5 -67t102.5 -61.5t108.5 -60t101.5 -67t80.5 -78t47.5 -97.5t1 -122q-22 -109 -100.5 -197.5t-188 -136t-225.5 -47.5q-193 0 -330 110l-12 -61 q-5 -24 -14.5 -32.5t-32.5 -8.5h-17q-23 0 -30.5 9t-3.5 32l32 166q4 23 15 32t34 9h15q19 0 31 -12q11 -13 22.5 -24.5t44 -36t67 -41.5t88 -30.5t111.5 -13.5q137 0 248 79t133 193q10 51 -2 94.5t-40 76.5t-68.5 64.5t-87.5 56.5t-96.5 53.5t-96 55.5t-86 63t-66.5 75.5 t-36.5 92t2.5 114.5q28 141 162 237.5t335 96.5q138 0 258 -72l5 23q4 23 15 32t34 9h16q23 0 30.5 -9t2.5 -32l-33 -166q-4 -23 -15 -32t-34 -9h-16z" />
<glyph unicode="T" horiz-adv-x="1069" d="M367 57q6 24 16 32.5t33 8.5h80l233 1196q6 31 2 36t-35 5h-258l-20 -108q-4 -23 -15 -32t-34 -9h-17q-23 0 -30.5 9t-2.5 32l33 166q4 23 15 32t34 9h824q23 0 30 -9t2 -32l-32 -166q-4 -23 -15 -32t-34 -9h-17q-23 0 -30.5 9t-2.5 32l21 108h-258q-31 0 -37 -5t-12 -36 l-234 -1196h84q24 0 31.5 -9t1.5 -32l-4 -16q-6 -24 -15 -32.5t-32 -8.5h-275q-24 0 -32.5 9t-2.5 32z" />
<glyph unicode="U" horiz-adv-x="1466" d="M1278 1393q6 24 16 32.5t33 8.5h275q23 0 30.5 -9t1.5 -32l-4 -17q-6 -24 -16 -32.5t-33 -8.5h-82l-158 -811q-34 -173 -127.5 -297.5t-218 -182t-264.5 -52.5q-106 4 -189.5 37t-142.5 98.5t-78 164t5 232.5l157 811h-82q-23 0 -30.5 9t-1.5 32l4 17q6 24 16 32.5 t33 8.5h274q24 0 31.5 -9t1.5 -32l-4 -17q-6 -24 -16 -32.5t-33 -8.5h-82l-160 -823q-20 -109 -5 -188.5t61.5 -131.5t112 -77t147.5 -25q171 0 304.5 107.5t174.5 314.5l160 823h-82q-24 0 -31.5 9t-1.5 32z" />
<glyph unicode="V" horiz-adv-x="1417" d="M1286 1393q6 24 16 32.5t33 8.5h238q24 0 31.5 -9t1.5 -32l-4 -17q-6 -24 -16.5 -32.5t-33.5 -8.5h-65l-703 -1294q-16 -29 -26 -35t-33 -6h-33q-17 0 -24 1.5t-13.5 10.5t-9.5 29l-196 1294h-68q-24 0 -31.5 9t-1.5 32l4 17q6 24 16 32.5t33 8.5h238q24 0 31.5 -9 t1.5 -32l-4 -17q-6 -24 -16.5 -32.5t-33.5 -8.5h-57l172 -1136q1 -11 11 -11t14 11l616 1136h-59q-24 0 -31.5 9t-1.5 32z" />
<glyph unicode="W" horiz-adv-x="2007" d="M352 1393q6 24 16 32.5t33 8.5h238q24 0 31.5 -9t1.5 -32l-4 -17q-6 -24 -16.5 -32.5t-33.5 -8.5h-61l74 -1136q1 -7 5.5 -9.5t10 0t8.5 9.5l549 1194q12 28 25 34.5t37 6.5h32q17 0 24 -1.5t13.5 -10.5t7.5 -29l82 -1194q1 -11 11 -11t14 11l518 1136h-63q-24 0 -31.5 9 t-1.5 32l4 17q6 24 16 32.5t33 8.5h238q23 0 30.5 -9t1.5 -32l-4 -17q-6 -24 -16 -32.5t-33 -8.5h-61l-604 -1294q-12 -28 -24 -34.5t-36 -6.5h-33q-17 0 -24 1.5t-14 10.5t-9 29l-82 1194q-1 7 -5.5 9.5t-10 0t-8.5 -9.5l-549 -1194q-12 -28 -23.5 -34.5t-35.5 -6.5h-33 q-17 0 -24 1.5t-14 10.5t-9 29l-99 1294h-63q-24 0 -31.5 9t-1.5 32z" />
<glyph unicode="X" horiz-adv-x="1236" d="M1022 0q-24 0 -31 4t-16 25l-225 561q-3 8 -11 8.5t-14 -8.5l-444 -561q-17 -21 -24.5 -25t-31.5 -4h-121q-24 0 -32 9t-2 32l4 16q6 24 16 32.5t33 8.5h82l485 611q9 12 10 18t-4 18l-229 590h-86q-24 0 -31.5 9t-1.5 32l4 17q6 24 16 32.5t33 8.5h113q24 0 31 -4 t14 -25l207 -543q3 -8 11 -8.5t14 8.5l421 543q17 21 25.5 25t32.5 4h123q23 0 30.5 -9t1.5 -32l-4 -17q-6 -24 -16 -32.5t-33 -8.5h-84l-461 -590q-9 -12 -10 -18t4 -18l244 -611h86q24 0 31.5 -9t1.5 -32l-4 -16q-6 -24 -15 -32.5t-32 -8.5h-111z" />
<glyph unicode="Y" horiz-adv-x="1277" d="M512 1434q24 0 31 -4t14 -25l225 -567q3 -8 11 -8t14 8l442 567q17 21 25.5 25t32.5 4h127q23 0 30.5 -9t1.5 -32l-4 -17q-6 -24 -16 -32.5t-33 -8.5h-84l-500 -630l-118 -607h84q23 0 30.5 -9t1.5 -32l-4 -16q-6 -24 -15 -32.5t-32 -8.5h-274q-24 0 -32.5 9t-2.5 32 l4 16q6 24 16 32.5t33 8.5h80l119 607l-252 630h-86q-24 0 -31.5 9t-1.5 32l4 17q6 24 16 32.5t33 8.5h111z" />
<glyph unicode="Z" horiz-adv-x="1024" d="M358 1393q4 23 15.5 32t34.5 9h772q23 0 30 -9t2 -32l-4 -17q-8 -28 -18 -41l-942 -1216q-6 -11 -3.5 -16t9.5 -5h598l22 109q4 23 15.5 32t34.5 9h16q23 0 30.5 -9t2.5 -32l-33 -166q-5 -24 -14.5 -32.5t-32.5 -8.5h-770q-24 0 -32.5 9t-2.5 32l4 16q8 29 19 41 l942 1217q7 9 5 14.5t-9 5.5h-603l-20 -108q-4 -23 -15 -32t-34 -9h-17q-23 0 -30 9t-2 32z" />
<glyph unicode="[" horiz-adv-x="704" d="M262 -268q-6 -31 -2 -36t35 -5h205q23 0 29 -8.5t3 -32.5l-2 -17q-3 -23 -14 -32t-35 -9h-315q-23 0 -30.5 9t-2.5 32l381 1960q4 23 15 32t34 9h316q23 0 30.5 -9t1.5 -32l-4 -16q-6 -24 -16 -32.5t-33 -8.5h-205q-31 0 -37 -5t-12 -36z" />
<glyph unicode="\" horiz-adv-x="481" d="M383 41q-3 -41 -45 -41h-21q-23 0 -31.5 10.5t-6.5 34.5l94 1339q2 23 14.5 36.5t34.5 13.5h20q23 0 31 -10.5t6 -34.5z" />
<glyph unicode="]" horiz-adv-x="704" d="M678 1495q6 31 2 36t-35 5h-205q-23 0 -30.5 9t-1.5 32l4 16q6 24 16 32.5t33 8.5h315q23 0 30.5 -9t2.5 -32l-381 -1960q-4 -23 -15 -32t-34 -9h-316q-23 0 -29 8.5t-3 32.5l2 17q3 23 14 32t35 9h205q31 0 37 5t12 36z" />
<glyph unicode="^" horiz-adv-x="1058" d="M756 1270q10 14 22 14t17 -14l188 -484q5 -15 12.5 -20.5t26.5 -5.5h55q16 0 24.5 11.5t2.5 29.5l-242 606q-5 15 -12.5 21t-26.5 6h-30q-31 0 -52 -27l-475 -606q-14 -19 -10 -30t20 -11h56q19 0 27 5t20 21z" />
<glyph unicode="_" horiz-adv-x="1124" d="M94 -41q6 24 16 32.5t33 8.5h838q24 0 31.5 -9t1.5 -32l-4 -16q-6 -24 -16 -32.5t-33 -8.5h-838q-24 0 -31.5 9t-1.5 32z" />
<glyph unicode="`" horiz-adv-x="348" d="M625 1616q23 -29 -13 -57q-33 -30 -57 0l-174 213q-24 30 10 57l12 10q36 28 58 0z" />
<glyph unicode="a" horiz-adv-x="1413" d="M999 1434q18 0 25 -1.5t13.5 -10.5t9.5 -29l196 -1295h66q23 0 30.5 -9t1.5 -32l-4 -16q-6 -24 -15 -32.5t-32 -8.5h-227q-24 0 -32.5 9t-2.5 32l4 16q6 24 16 32.5t33 8.5h49l-43 283q-3 19 -9.5 24t-26.5 5h-529q-21 0 -30 -5t-19 -24l-156 -283h50q23 0 30.5 -9 t1.5 -32l-4 -16q-6 -24 -15 -32.5t-32 -8.5h-225q-24 0 -32.5 9t-2.5 32l4 16q6 24 16 32.5t33 8.5h64l672 1237h-50q-23 0 -30.5 9t-1.5 32l4 17q6 24 16 32.5t33 8.5h151zM963 1255q-2 10 -10.5 10.5t-14.5 -10.5l-385 -725q-11 -22 10 -22h484q21 0 18 22z" />
<glyph unicode="b" horiz-adv-x="1200" d="M123 0q-24 0 -32.5 9t-2.5 32l4 16q6 24 16 32.5t33 8.5h80l242 1237h-82q-24 0 -31.5 9t-1.5 32l4 17q6 24 16 32.5t33 8.5h521q74 0 133.5 -15t97.5 -41t65 -61.5t37 -76t13 -83.5t-8 -86q-19 -95 -78.5 -179t-159.5 -134q102 -51 139 -148.5t15 -206.5 q-11 -59 -37.5 -115t-71.5 -109t-103.5 -92t-140.5 -63t-176 -24h-524zM825 805q76 2 138 28.5t100 67.5t61 84t31 86q7 27 4.5 57.5t-8.5 59.5t-25 56t-45.5 47t-69 32t-96.5 12h-301q-31 0 -37 -5t-12 -36l-86 -448q-6 -31 -2 -36t35 -5h313zM494 707q-31 0 -37.5 -5 t-12.5 -36l-102 -527q-6 -31 -2 -36t35 -5h303q75 0 139.5 21.5t106.5 54t74.5 75t48.5 80.5t24 74q8 27 5 60t-8.5 67t-27 66t-51 56.5t-79.5 39.5t-113 15h-303z" />
<glyph unicode="c" horiz-adv-x="1304" d="M1395 1186q-23 0 -30.5 9t-2.5 32l8 41q-37 20 -61.5 32t-88.5 27.5t-133 15.5q-170 0 -327.5 -84t-266 -227.5t-141.5 -314.5q-34 -171 19 -315t178 -228t295 -84q150 0 311 76l8 41q4 23 15 32t34 9h17q23 0 30.5 -9t2.5 -32l-33 -166q-5 -24 -14.5 -32.5t-32.5 -8.5 h-17q-24 0 -31.5 9t-3.5 32l3 14q-147 -63 -308 -63q-196 0 -344 97.5t-212.5 264.5t-26.5 363q37 196 166.5 363t315.5 264.5t382 97.5q154 0 285 -64l4 15q6 24 16 32.5t33 8.5h16q23 0 30.5 -9t2.5 -32l-33 -166q-4 -23 -15 -32t-34 -9h-16z" />
<glyph unicode="d" horiz-adv-x="1468" d="M1505 717q-42 -218 -168.5 -381t-314 -249.5t-412.5 -86.5h-467q-24 0 -32 9t-2 32l4 16q6 24 16 32.5t33 8.5h80l241 1237h-82q-23 0 -30.5 9t-1.5 32l4 17q6 24 16 32.5t33 8.5h467q168 0 298.5 -50t211 -143t110 -225.5t-3.5 -298.5zM627 98q300 0 505.5 165 t262.5 454q55 289 -87 453.5t-442 164.5h-231q-31 0 -37 -5t-12 -36l-224 -1155q-6 -31 -2 -36t35 -5h232z" />
<glyph unicode="e" horiz-adv-x="1114" d="M1249 1434q23 0 30.5 -9t2.5 -32l-33 -166q-4 -23 -15 -32t-34 -9h-16q-23 0 -30.5 9t-2.5 32l20 108h-536q-31 0 -37 -5t-12 -36l-86 -448q-6 -31 -2 -36t34 -5h492q24 0 31.5 -9t1.5 -32l-4 -16q-6 -24 -15 -32.5t-32 -8.5h-492q-31 0 -37 -5t-12 -36l-103 -527 q-6 -31 -2 -36t35 -5h537l20 109q4 23 15 32t34 9h17q23 0 30.5 -9t2.5 -32l-33 -166q-5 -24 -14.5 -32.5t-32.5 -8.5h-828q-24 0 -32 9t-2 32l4 16q6 24 16 32.5t33 8.5h80l241 1237h-82q-23 0 -30.5 9t-1.5 32l4 17q6 24 16 32.5t33 8.5h827z" />
<glyph unicode="f" horiz-adv-x="1093" d="M113 57q5 22 15.5 31.5t33.5 9.5h80l241 1237h-82q-23 0 -30.5 9t-1.5 32l4 17q6 24 16 32.5t33 8.5h827q23 0 30.5 -9t2.5 -32l-33 -166q-4 -23 -15 -32t-34 -9h-16q-23 0 -30.5 9t-2.5 32l20 108h-536q-31 0 -37 -5t-12 -36l-86 -448q-6 -31 -2 -36t34 -5h492 q24 0 31.5 -9t1.5 -32l-4 -16q-6 -24 -15 -32.5t-32 -8.5h-492q-31 0 -37 -5t-12 -36l-113 -568h84q24 0 31.5 -9t1.5 -32l-4 -16q-6 -24 -15 -32.5t-32 -8.5h-275q-24 0 -32 9t-2 32z" />
<glyph unicode="g" horiz-adv-x="1474" d="M1087 1343q-170 0 -327.5 -84t-266 -227.5t-141.5 -314.5q-34 -171 19 -315t178 -228t295 -84q90 0 178.5 25.5t151 63t104 78.5t47.5 73l66 336q6 31 2 36t-35 5h-211l-21 -109q-4 -23 -15 -32t-34 -9h-16q-23 0 -30.5 9t-2.5 32l33 166q4 23 15 32t34 9h377 q23 0 30.5 -9t2.5 -32l-84 -430q-11 -57 -66 -117.5t-136 -110.5t-190.5 -82t-218.5 -32q-196 0 -344 97.5t-212.5 264.5t-26.5 363q28 148 107 281t191.5 231t260 155.5t305.5 57.5q241 0 407 -146q17 -15 -2 -34l-43 -43q-15 -15 -36 2q-139 122 -345 122z" />
<glyph unicode="h" horiz-adv-x="1372" d="M1507 1434q24 0 31.5 -9t1.5 -32l-4 -17q-6 -24 -16 -32.5t-33 -8.5h-82l-242 -1237h84q24 0 31.5 -9t1.5 -32l-4 -16q-6 -24 -15 -32.5t-32 -8.5h-275q-24 0 -32 9t-2 32l4 16q6 24 16 32.5t33 8.5h80l112 568q6 31 2.5 36t-34.5 5h-619q-31 0 -37 -5t-12 -36l-113 -568 h84q24 0 31.5 -9t1.5 -32l-4 -16q-6 -24 -15 -32.5t-32 -8.5h-275q-24 0 -32 9t-2 32l4 16q6 24 16 32.5t33 8.5h80l241 1237h-82q-23 0 -30.5 9t-1.5 32l4 17q6 24 16 32.5t33 8.5h274q24 0 31.5 -9t1.5 -32l-4 -17q-6 -24 -16 -32.5t-33 -8.5h-82l-94 -489q-6 -31 -2 -36 t34 -5h619q31 0 37 5t12 36l94 489h-82q-23 0 -30.5 9t-1.5 32l4 17q6 24 16 32.5t33 8.5h274z" />
<glyph unicode="i" horiz-adv-x="561" d="M373 1393q6 24 16 32.5t33 8.5h274q24 0 31.5 -9t1.5 -32l-4 -17q-6 -24 -16 -32.5t-33 -8.5h-82l-242 -1237h84q24 0 31.5 -9t1.5 -32l-4 -16q-6 -24 -15 -32.5t-32 -8.5h-275q-24 0 -32 9t-2 32l4 16q6 24 16 32.5t33 8.5h80l241 1237h-82q-23 0 -30.5 9t-1.5 32z" />
<glyph unicode="j" horiz-adv-x="950" d="M762 1393q6 24 16 32.5t33 8.5h274q24 0 31.5 -9t1.5 -32l-4 -17q-6 -24 -16 -32.5t-33 -8.5h-82l-195 -1007q-30 -148 -154.5 -242t-273.5 -94q-178 0 -264 123q-21 32 13 59l14 12q34 27 55 0q78 -96 195 -96q101 0 192.5 66.5t112.5 171.5l194 1007h-81q-24 0 -31.5 9 t-1.5 32z" />
<glyph unicode="k" horiz-adv-x="1253" d="M373 1393q6 24 16 32.5t33 8.5h274q24 0 31.5 -9t1.5 -32l-4 -17q-6 -24 -16 -32.5t-33 -8.5h-82l-117 -604q-1 -10 6 -13t15 5l737 696q17 15 45 15h129q24 0 31.5 -9t1.5 -32l-4 -17q-6 -24 -16 -32.5t-33 -8.5h-86l-590 -551q-15 -13 -16 -20.5t8 -24.5l366 -641h78 q24 0 31.5 -9t1.5 -32l-4 -16q-6 -24 -15.5 -32.5t-32.5 -8.5h-106q-29 0 -39 14l-373 652q-10 18 -28 0l-119 -111q-17 -15 -24 -26.5t-11 -34.5l-78 -396h84q24 0 31.5 -9t1.5 -32l-4 -16q-6 -24 -15 -32.5t-32 -8.5h-275q-24 0 -32 9t-2 32l4 16q6 24 16 32.5t33 8.5h80 l241 1237h-82q-23 0 -30.5 9t-1.5 32z" />
<glyph unicode="l" horiz-adv-x="995" d="M920 41q-5 -23 -15 -32t-33 -9h-729q-24 0 -32 9t-2 32l4 16q6 24 16 32.5t33 8.5h80l241 1237h-82q-23 0 -30.5 9t-1.5 32l4 17q6 24 16 32.5t33 8.5h274q24 0 31.5 -9t1.5 -32l-4 -17q-6 -24 -16 -32.5t-33 -8.5h-82l-232 -1196q-6 -31 -2 -36t35 -5h439l20 109 q4 23 15 32t34 9h17q23 0 30 -9t2 -32z" />
<glyph unicode="m" horiz-adv-x="1740" d="M1313 57q6 24 16 32.5t33 8.5h76l110 1008q1 6 -2.5 9.5t-8.5 1.5t-9 -9l-594 -1079q-9 -20 -19.5 -24.5t-29.5 -4.5h-29q-13 0 -19.5 1t-13 7.5t-8.5 20.5l-172 1077q-1 12 -11.5 12t-13.5 -12l-280 -1008h78q24 0 31.5 -9t1.5 -32l-5 -16q-6 -24 -15 -32.5t-32 -8.5 h-274q-24 0 -32.5 9t-2.5 32l4 16q6 24 16 32.5t33 8.5h86l344 1237h-77q-24 0 -31.5 9t-1.5 32l4 17q6 24 16 32.5t33 8.5h152q18 0 23.5 -4.5t8.5 -20.5l197 -1223q2 -8 8.5 -8.5t11.5 8.5l672 1223q9 15 17.5 20t27.5 5h152q24 0 31.5 -9t1.5 -32l-5 -17 q-6 -24 -16 -32.5t-33 -8.5h-75l-140 -1237h88q24 0 31.5 -9t1.5 -32l-4 -16q-6 -24 -15 -32.5t-32 -8.5h-275q-24 0 -32 9t-2 32z" />
<glyph unicode="n" horiz-adv-x="1468" d="M113 57q6 24 16 32.5t33 8.5h80l241 1237h-82q-23 0 -30.5 9t-1.5 32l4 17q6 24 16 32.5t33 8.5h143q9 0 14 -1t8.5 -5t5 -7t5.5 -12l561 -1153q5 -10 13 -8.5t10 12.5l209 1075h-82q-24 0 -31.5 9t-1.5 32l4 17q6 24 16 32.5t33 8.5h275q23 0 30.5 -9t1.5 -32l-4 -17 q-6 -24 -16 -32.5t-33 -8.5h-82l-252 -1294q-5 -24 -14.5 -32.5t-32.5 -8.5h-20q-16 0 -22 5t-13 20l-561 1153q-5 10 -13 8.5t-10 -12.5l-211 -1076h84q24 0 31.5 -9t1.5 -32l-4 -16q-6 -24 -15 -32.5t-32 -8.5h-275q-24 0 -32 9t-2 32z" />
<glyph unicode="o" d="M242 717q28 148 107 281t191.5 231t260 155.5t305.5 57.5q196 0 344.5 -97.5t213.5 -264.5t28 -363q-29 -148 -108.5 -281t-192.5 -231t-260.5 -155.5t-305.5 -57.5q-196 0 -344 97.5t-212.5 264.5t-26.5 363zM352 717q-34 -171 19 -315t178 -228t295 -84q127 0 251 49.5 t222 134t168.5 200t95.5 243.5q33 171 -20.5 314.5t-178.5 227.5t-295 84t-327.5 -84t-266 -227.5t-141.5 -314.5z" />
<glyph unicode="p" horiz-adv-x="1163" d="M92 57q6 24 16 32.5t33 8.5h80l242 1237h-82q-24 0 -31.5 9t-1.5 32l4 17q6 24 16 32.5t33 8.5h453q158 0 257 -62t131 -163t7 -230q-18 -96 -64 -177.5t-117 -144t-172 -98t-220 -35.5h-219q-31 0 -37 -5t-12 -36l-76 -385h84q24 0 31.5 -9t1.5 -32l-5 -16 q-6 -24 -15 -32.5t-32 -8.5h-274q-24 0 -32.5 9t-2.5 32zM442 664q-4 -31 0 -36t35 -5h213q196 0 310 97.5t145 258.5q17 75 5 140t-46.5 113t-105.5 75.5t-171 27.5h-213q-31 0 -37 -5t-12 -36z" />
<glyph unicode="q" d="M242 717q28 148 107 281t191.5 231t260 155.5t305.5 57.5q196 0 344.5 -97.5t213.5 -264.5t28 -363q-46 -232 -212 -420.5t-386 -259.5l151 -365q7 -18 -0.5 -29.5t-23.5 -11.5h-21q-32 0 -40 5.5t-21 39.5l-140 334q-85 -18 -174 -18q-196 0 -344 97.5t-212.5 264.5 t-26.5 363zM352 717q-34 -171 19 -315t178 -228t295 -84q120 0 242.5 50t222.5 133.5t173.5 200t98.5 243.5q33 171 -20.5 314.5t-178.5 227.5t-295 84t-327.5 -84t-266 -227.5t-141.5 -314.5z" />
<glyph unicode="r" horiz-adv-x="1296" d="M113 57q6 24 16 32.5t33 8.5h80l241 1237h-82q-23 0 -30.5 9t-1.5 32l4 17q6 24 16 32.5t33 8.5h516q96 0 170.5 -20t122 -56.5t76.5 -87t33.5 -111.5t-7.5 -131q-30 -157 -140 -263t-292 -134l213 -533h78q24 0 31.5 -9t1.5 -32l-4 -16q-6 -24 -15 -32.5t-32 -8.5h-275 q-24 0 -32.5 9t-2.5 32l4 16q6 24 16.5 32.5t33.5 8.5h71l-207 525h-284q-31 0 -37 -5t-12 -36l-97 -484h84q24 0 31.5 -9t1.5 -32l-4 -16q-6 -24 -15 -32.5t-32 -8.5h-275q-24 0 -32 9t-2 32zM483 762q-6 -31 -2 -36t35 -5h311q91 0 165.5 26.5t122.5 71.5t77.5 97.5 t40.5 111.5q7 46 6 89.5t-21 83t-52.5 69.5t-89 47.5t-130.5 17.5h-311q-31 0 -37 -5t-12 -36z" />
<glyph unicode="s" horiz-adv-x="1093" d="M1133 1186q-23 0 -30.5 9t-2.5 32l8 39q-120 77 -258 77q-161 0 -255 -71t-114 -166q-10 -53 6 -99t51 -81t83.5 -67t102.5 -61.5t108.5 -60t101.5 -67t80.5 -78t47.5 -97.5t1 -122q-22 -109 -100.5 -197.5t-188 -136t-225.5 -47.5q-193 0 -330 110l-12 -61 q-5 -24 -14.5 -32.5t-32.5 -8.5h-17q-23 0 -30.5 9t-3.5 32l32 166q4 23 15 32t34 9h15q19 0 31 -12q11 -13 22.5 -24.5t44 -36t67 -41.5t88 -30.5t111.5 -13.5q137 0 248 79t133 193q10 51 -2 94.5t-40 76.5t-68.5 64.5t-87.5 56.5t-96.5 53.5t-96 55.5t-86 63t-66.5 75.5 t-36.5 92t2.5 114.5q28 141 162 237.5t335 96.5q138 0 258 -72l5 23q4 23 15 32t34 9h16q23 0 30.5 -9t2.5 -32l-33 -166q-4 -23 -15 -32t-34 -9h-16z" />
<glyph unicode="t" horiz-adv-x="1069" d="M367 57q6 24 16 32.5t33 8.5h80l233 1196q6 31 2 36t-35 5h-258l-20 -108q-4 -23 -15 -32t-34 -9h-17q-23 0 -30.5 9t-2.5 32l33 166q4 23 15 32t34 9h824q23 0 30 -9t2 -32l-32 -166q-4 -23 -15 -32t-34 -9h-17q-23 0 -30.5 9t-2.5 32l21 108h-258q-31 0 -37 -5t-12 -36 l-234 -1196h84q24 0 31.5 -9t1.5 -32l-4 -16q-6 -24 -15 -32.5t-32 -8.5h-275q-24 0 -32.5 9t-2.5 32z" />
<glyph unicode="u" horiz-adv-x="1466" d="M1278 1393q6 24 16 32.5t33 8.5h275q23 0 30.5 -9t1.5 -32l-4 -17q-6 -24 -16 -32.5t-33 -8.5h-82l-158 -811q-34 -173 -127.5 -297.5t-218 -182t-264.5 -52.5q-106 4 -189.5 37t-142.5 98.5t-78 164t5 232.5l157 811h-82q-23 0 -30.5 9t-1.5 32l4 17q6 24 16 32.5 t33 8.5h274q24 0 31.5 -9t1.5 -32l-4 -17q-6 -24 -16 -32.5t-33 -8.5h-82l-160 -823q-20 -109 -5 -188.5t61.5 -131.5t112 -77t147.5 -25q171 0 304.5 107.5t174.5 314.5l160 823h-82q-24 0 -31.5 9t-1.5 32z" />
<glyph unicode="v" horiz-adv-x="1417" d="M1286 1393q6 24 16 32.5t33 8.5h238q24 0 31.5 -9t1.5 -32l-4 -17q-6 -24 -16.5 -32.5t-33.5 -8.5h-65l-703 -1294q-16 -29 -26 -35t-33 -6h-33q-17 0 -24 1.5t-13.5 10.5t-9.5 29l-196 1294h-68q-24 0 -31.5 9t-1.5 32l4 17q6 24 16 32.5t33 8.5h238q24 0 31.5 -9 t1.5 -32l-4 -17q-6 -24 -16.5 -32.5t-33.5 -8.5h-57l172 -1136q1 -11 11 -11t14 11l616 1136h-59q-24 0 -31.5 9t-1.5 32z" />
<glyph unicode="w" horiz-adv-x="2007" d="M352 1393q6 24 16 32.5t33 8.5h238q24 0 31.5 -9t1.5 -32l-4 -17q-6 -24 -16.5 -32.5t-33.5 -8.5h-61l74 -1136q1 -7 5.5 -9.5t10 0t8.5 9.5l549 1194q12 28 25 34.5t37 6.5h32q17 0 24 -1.5t13.5 -10.5t7.5 -29l82 -1194q1 -11 11 -11t14 11l518 1136h-63q-24 0 -31.5 9 t-1.5 32l4 17q6 24 16 32.5t33 8.5h238q23 0 30.5 -9t1.5 -32l-4 -17q-6 -24 -16 -32.5t-33 -8.5h-61l-604 -1294q-12 -28 -24 -34.5t-36 -6.5h-33q-17 0 -24 1.5t-14 10.5t-9 29l-82 1194q-1 7 -5.5 9.5t-10 0t-8.5 -9.5l-549 -1194q-12 -28 -23.5 -34.5t-35.5 -6.5h-33 q-17 0 -24 1.5t-14 10.5t-9 29l-99 1294h-63q-24 0 -31.5 9t-1.5 32z" />
<glyph unicode="x" horiz-adv-x="1236" d="M1022 0q-24 0 -31 4t-16 25l-225 561q-3 8 -11 8.5t-14 -8.5l-444 -561q-17 -21 -24.5 -25t-31.5 -4h-121q-24 0 -32 9t-2 32l4 16q6 24 16 32.5t33 8.5h82l485 611q9 12 10 18t-4 18l-229 590h-86q-24 0 -31.5 9t-1.5 32l4 17q6 24 16 32.5t33 8.5h113q24 0 31 -4 t14 -25l207 -543q3 -8 11 -8.5t14 8.5l421 543q17 21 25.5 25t32.5 4h123q23 0 30.5 -9t1.5 -32l-4 -17q-6 -24 -16 -32.5t-33 -8.5h-84l-461 -590q-9 -12 -10 -18t4 -18l244 -611h86q24 0 31.5 -9t1.5 -32l-4 -16q-6 -24 -15 -32.5t-32 -8.5h-111z" />
<glyph unicode="y" horiz-adv-x="1277" d="M512 1434q24 0 31 -4t14 -25l225 -567q3 -8 11 -8t14 8l442 567q17 21 25.5 25t32.5 4h127q23 0 30.5 -9t1.5 -32l-4 -17q-6 -24 -16 -32.5t-33 -8.5h-84l-500 -630l-118 -607h84q23 0 30.5 -9t1.5 -32l-4 -16q-6 -24 -15 -32.5t-32 -8.5h-274q-24 0 -32.5 9t-2.5 32 l4 16q6 24 16 32.5t33 8.5h80l119 607l-252 630h-86q-24 0 -31.5 9t-1.5 32l4 17q6 24 16 32.5t33 8.5h111z" />
<glyph unicode="z" horiz-adv-x="1024" d="M358 1393q4 23 15.5 32t34.5 9h772q23 0 30 -9t2 -32l-4 -17q-8 -28 -18 -41l-942 -1216q-6 -11 -3.5 -16t9.5 -5h598l22 109q4 23 15.5 32t34.5 9h16q23 0 30.5 -9t2.5 -32l-33 -166q-5 -24 -14.5 -32.5t-32.5 -8.5h-770q-24 0 -32.5 9t-2.5 32l4 16q8 29 19 41 l942 1217q7 9 5 14.5t-9 5.5h-603l-20 -108q-4 -23 -15 -32t-34 -9h-17q-23 0 -30 9t-2 32z" />
<glyph unicode="{" horiz-adv-x="659" d="M250 764q6 24 16 32.5t33 8.5q38 0 64 13.5t40.5 40.5t21.5 51t15 62q1 7 2 11l76 395q31 164 112 248t218 90q25 1 33 -8.5t2 -32.5l-4 -16q-6 -23 -16 -31t-34 -10q-33 -2 -60 -12.5t-45.5 -23t-34 -35t-23.5 -39t-16 -45t-11 -42.5t-8 -41l-80 -403 q-16 -81 -40.5 -127.5t-68.5 -93.5q26 -48 32 -89t-9 -132l-117 -607q-18 -101 -11 -144q15 -86 118 -93q23 -1 29 -9t3 -32l-2 -17q-3 -23 -14.5 -32.5t-34.5 -8.5q-135 6 -183 89.5t-15 248.5l116 598l3 18q5 32 7.5 48.5t1.5 42t-9.5 38t-27 22.5t-48.5 10q-24 0 -32.5 9 t-2.5 32z" />
<glyph unicode="|" horiz-adv-x="520" d="M207 -557q-4 -23 -15 -32t-34 -9h-29q-23 0 -30.5 9t-2.5 32l398 2050q4 23 15 32t34 9h28q23 0 30.5 -9t2.5 -32z" />
<glyph unicode="}" horiz-adv-x="659" d="M700 748q-6 -24 -15 -32.5t-32 -8.5q-38 0 -64 -14t-40 -40t-22 -52t-15 -61q-1 -8 -2 -12l-117 -598q-33 -165 -112.5 -248.5t-217.5 -89.5q-22 -1 -28.5 8t-3.5 33l2 17q3 22 14 30.5t35 10.5q38 2 68.5 14t50.5 33t34 41.5t24 51t14.5 49t9.5 48.5l116 607 q16 80 40.5 126t68.5 95q-17 33 -24 57t-9.5 68t10.5 96l80 403q6 31 7.5 41.5t4.5 41.5t1 45.5t-9 38.5t-20.5 36t-36.5 22.5t-55 12.5q-24 2 -31.5 10t-1.5 31l4 16q6 24 16 33t31 8q136 -6 183 -89.5t16 -248.5l-76 -395q-14 -89 -11 -115q9 -63 85 -63q23 0 30.5 -9 t2.5 -32z" />
<glyph unicode="~" horiz-adv-x="1089" d="M647 705q-93 38 -143 38q-49 0 -93 -28t-75 -64q-15 -18 -33 -6l-55 35q-15 12 -2 31q51 71 128.5 112.5t155.5 38.5q36 -1 76.5 -12.5t59 -20t65.5 -30.5q80 -39 146 -39q83 0 165 92q18 18 35 6l56 -35q15 -12 2 -30q-51 -71 -129.5 -113t-157.5 -39q-16 0 -31 2t-32 7 t-27.5 8t-29.5 11t-26 11t-29 13t-26 12z" />
<glyph unicode="&#xa1;" horiz-adv-x="462" d="M506 946q-6 -35 -37 -60.5t-66 -25.5t-55 25.5t-14 60.5q8 35 37.5 60.5t64.5 25.5t56 -25.5t14 -60.5zM377 702q23 0 30 -8.5t3 -31.5l-191 -1031q-4 -23 -15 -32t-34 -9h-29q-23 0 -30 9t-2 32l210 1031q4 23 15 31.5t35 8.5h8z" />
<glyph unicode="&#xa2;" horiz-adv-x="1277" d="M1087 1343q-170 0 -327.5 -84t-266 -227.5t-141.5 -314.5q-34 -171 19 -315t178 -228t295 -84q150 0 311 76q29 13 37 -4l20 -45q8 -22 -20 -35q-156 -77 -313 -88l-19 -96q-4 -23 -15 -32t-34 -9h-25q-23 0 -30 9t-2 32l18 96q-183 13 -318 112.5t-192 261t-20 349.5 q28 142 101 271t177.5 227t243 158.5t289.5 66.5l18 96q4 23 15 32t34 9h25q23 0 30.5 -9t2.5 -32l-19 -96q153 -11 281 -88q23 -13 4 -35l-37 -45q-13 -18 -37 -4q-37 20 -61.5 32t-88.5 27.5t-133 15.5z" />
<glyph unicode="&#xa3;" horiz-adv-x="933" d="M899 41q-5 -24 -14.5 -32.5t-32.5 -8.5h-606q-24 0 -31.5 9t-3.5 32l119 606q3 12 -1 16.5t-16 4.5h-82q-23 0 -29 8.5t-3 32.5l2 16q3 23 14 32t35 9h82q12 0 16.5 4t7.5 16l19 95q53 267 157.5 397t268.5 154q30 4 38.5 -2t6.5 -23l-4 -37q-1 -19 -8.5 -26.5 t-24.5 -10.5q-242 -37 -313 -403l-29 -144q-3 -12 0.5 -16t15.5 -4h297q23 0 29.5 -8.5t3.5 -32.5l-2 -16q-3 -23 -14 -32t-35 -9h-297q-20 0 -25 -21l-98 -506q-6 -32 -1.5 -37.5t36.5 -5.5h436l21 109q4 23 15 32t34 9h16q23 0 30.5 -9t2.5 -32z" />
<glyph unicode="&#xa5;" horiz-adv-x="1277" d="M819 643q-3 -12 1 -16t16 -4h104q23 0 30.5 -9t2.5 -32l-4 -17q-4 -23 -15 -32t-34 -9h-105q-12 0 -16.5 -4t-7.5 -16l-13 -64q-2 -12 1.5 -16t15.5 -4h104q23 0 30.5 -9t2.5 -32l-2 -17q-4 -23 -15 -31.5t-34 -8.5h-105q-12 0 -16.5 -4.5t-7.5 -16.5l-39 -203h82 q23 0 30 -9t2 -32l-4 -16q-5 -24 -14.5 -32.5t-32.5 -8.5h-274q-24 0 -31.5 9t-3.5 32l4 16q4 23 15 32t34 9h82l39 203q3 12 -0.5 16.5t-15.5 4.5h-105q-23 0 -30 8.5t-3 31.5l2 17q4 23 15.5 32t34.5 9h104q23 0 25 20l12 64q3 12 -0.5 16t-15.5 4h-105q-23 0 -30.5 9 t-2.5 32l4 17q4 23 15.5 32t34.5 9h104q12 0 17 4t8 16l10 62l-254 630h-84q-23 0 -30.5 9t-2.5 32l4 17q4 23 15 32t34 9h111q24 0 31 -4t14 -25l229 -578q3 -7 11 -7t14 7l455 578q17 21 25 25t32 4h111q23 0 30 -9t2 -32l-4 -17q-4 -23 -15 -32t-34 -9h-86l-498 -630z " />
<glyph unicode="&#xa7;" horiz-adv-x="907" d="M940 711q-9 -76 -48.5 -138t-103.5 -102q83 -69 72 -170q-15 -148 -127 -228.5t-284 -80.5q-168 0 -312 88q-27 15 0 59l8 13q22 32 68 8q42 -22 70.5 -34.5t78.5 -24t105 -11.5q107 0 184 47t94 129q9 45 -7 81t-49.5 59t-77.5 45t-91.5 39t-92.5 42t-79.5 53t-52.5 72 t-12 99q7 68 50.5 126.5t110.5 96.5q-93 69 -82 186q13 131 121 207t248 70q147 -7 252 -72q26 -16 0 -59l-8 -13q-22 -32 -68 -8q-106 53 -194 53q-99 0 -162.5 -44t-75.5 -113q-9 -47 13.5 -83.5t65.5 -61t96.5 -46.5t107 -46.5t97 -54t68 -76.5t17.5 -107zM825 676 q7 35 -2.5 64.5t-25.5 49t-50.5 40.5t-59 32t-72.5 30.5t-70 29.5q-62 -17 -101.5 -56.5t-48.5 -89.5q-7 -40 6.5 -72t49.5 -56.5t69 -40.5t91 -40t89 -39q104 49 125 148z" />
<glyph unicode="&#xa8;" horiz-adv-x="538" d="M362 1622q7 35 38.5 60.5t66.5 25.5t55 -25.5t13 -60.5q-6 -35 -37 -60.5t-66 -25.5t-55.5 25.5t-14.5 60.5zM631 1622q8 35 38.5 60.5t65.5 25.5t55 -25.5t13 -60.5q-6 -35 -37 -60.5t-66 -25.5t-55 25.5t-14 60.5z" />
<glyph unicode="&#xa9;" horiz-adv-x="1763" d="M303 717q28 146 111 279.5t198 229.5t259 153t290 57q117 0 219.5 -36.5t176.5 -102t125 -156t64 -197.5t-7 -227q-38 -195 -166.5 -360.5t-312 -261t-377.5 -95.5q-146 0 -268 56.5t-200 152.5t-109.5 229t-2.5 279zM397 715q-24 -125 3 -238t94.5 -195.5t173.5 -131 t233 -48.5q165 0 322 82t267 223.5t142 307.5q25 127 -1 242.5t-92.5 198.5t-170 132t-227.5 49q-169 0 -328.5 -82.5t-271 -226t-144.5 -313.5zM711 668q-36 -184 28 -277.5t205 -93.5t250 98q32 28 55 0l13 -14q20 -26 -13 -57q-137 -125 -325 -125q-86 0 -154.5 29 t-114 86t-60 142.5t6.5 198.5l25 127q28 146 104 251t177.5 155.5t217.5 50.5q188 0 277 -125q22 -32 -10 -57l-19 -15q-35 -28 -55 0q-37 53 -88 76t-123 23q-142 0 -242.5 -94t-134.5 -277z" />
<glyph unicode="&#xaa;" horiz-adv-x="632" d="M557 1227q87 -6 139 -64l13 66q13 71 -20 112t-97 41q-72 0 -129 -49q-16 -16 -29 0l-8 10q-10 13 6 27q73 66 172 66q84 0 133.5 -53.5t32.5 -137.5l-74 -373q-2 -20 -32 -20q-15 0 -20.5 3.5t-4.5 16.5l8 37q-72 -55 -164 -61q-87 -6 -139 43.5t-33 144.5 q18 95 90 145.5t156 45.5zM504 895q83 9 151 63l31 156q-56 56 -127 64q-70 6 -124 -29.5t-68 -112.5t26 -112t111 -29z" />
<glyph unicode="&#xab;" horiz-adv-x="972" d="M209 489q-19 22 8 46l426 348q17 12 27.5 7t7.5 -20l-16 -84q0 -1 -1 -5.5t-1.5 -5.5t-1.5 -4.5t-1.5 -5t-2 -4.5t-3.5 -5t-4.5 -5t-6 -6t-7.5 -6l-262 -215q-14 -11 -4 -24l178 -215q11 -14 12.5 -24.5t-2.5 -22.5l-16 -84q-3 -15 -15.5 -20t-23.5 7zM569 489 q-19 22 9 46l426 348q17 12 27 7t7 -20l-16 -84q0 -1 -1 -5.5t-1.5 -5.5t-1.5 -4.5t-1.5 -5t-2 -4.5t-3.5 -5t-4.5 -5t-6 -6t-7.5 -6l-262 -215q-14 -11 -4 -24l178 -215q11 -14 12.5 -24.5t-2.5 -22.5l-16 -84q-3 -15 -15.5 -20t-23.5 7z" />
<glyph unicode="&#xad;" horiz-adv-x="1206" d="M213 571q6 24 16 32.5t33 8.5h920q23 0 30.5 -9t1.5 -32l-4 -16q-6 -24 -16 -32.5t-33 -8.5h-919q-24 0 -31.5 9t-1.5 32z" />
<glyph unicode="&#xae;" horiz-adv-x="1763" d="M303 717q28 146 111 279.5t198 229.5t259 153t290 57q117 0 219.5 -36.5t176.5 -102t125 -156t64 -197.5t-7 -227q-38 -195 -166.5 -360.5t-312 -261t-377.5 -95.5q-146 0 -268 56.5t-200 152.5t-109.5 229t-2.5 279zM397 715q-24 -125 3 -238t94.5 -195.5t173.5 -131 t233 -48.5q165 0 322 82t267 223.5t142 307.5q25 127 -1 242.5t-92.5 198.5t-170 132t-227.5 49q-169 0 -328.5 -82.5t-271 -226t-144.5 -313.5zM1124 1217q159 0 227.5 -71.5t43.5 -199.5q-20 -108 -93.5 -175.5t-195.5 -86.5l158 -395q6 -10 -0.5 -18.5t-16.5 -8.5h-55 q-15 0 -19 3t-10 18l-157 395h-148q-20 0 -24 -3.5t-9 -25.5l-69 -360q-5 -27 -33 -27h-41q-14 0 -18.5 6t-1.5 21l174 901q6 27 32 27h256zM852 788q-3 -19 -0.5 -21.5t22.5 -2.5h158q132 0 193.5 43.5t79.5 138.5q19 95 -25.5 139.5t-175.5 44.5h-158q-21 0 -25 -3.5 t-8 -26.5z" />
<glyph unicode="&#xaf;" horiz-adv-x="530" d="M332 1602q3 23 13 31.5t34 8.5h407q23 0 30.5 -8.5t4.5 -31.5l-4 -17q-4 -23 -15 -32t-34 -9h-408q-23 0 -30 9t-2 32z" />
<glyph unicode="&#xb0;" horiz-adv-x="626" d="M508 1020q-85 0 -135 62t-33 147q17 88 91 150.5t159 62.5q88 0 138.5 -62.5t33.5 -150.5q-17 -85 -92 -147t-162 -62zM426 1227q-10 -54 17.5 -88.5t80.5 -34.5q57 0 99 34.5t53 88.5q11 55 -18 91t-85 36q-52 0 -94 -36.5t-53 -90.5z" />
<glyph unicode="&#xb2;" horiz-adv-x="499" d="M528 1442q65 2 104.5 -34.5t26.5 -104.5q-9 -47 -40.5 -84.5t-71 -63t-78.5 -51.5t-70.5 -63t-40.5 -83l-2 -16q-1 -13 1 -15.5t14 -2.5h188q17 0 14 -17l-8 -39q-3 -16 -20 -16h-271q-10 0 -13 3.5t-1 12.5l14 78q12 63 46.5 112t75.5 78.5t81.5 53.5t70.5 50.5t36 55.5 q7 42 -20 60.5t-66 11t-68 -32.5q-12 -10 -22 0l-23 29q-6 10 6 22q60 53 137 56z" />
<glyph unicode="&#xb3;" horiz-adv-x="524" d="M455 1130q-18 0 -15 17l9 39q3 16 20 16h4q97 0 113 82q9 48 -18 70t-67.5 15t-70.5 -34q-12 -10 -22 0l-23 29q-6 10 6 22q60 53 137 56q68 2 111 -38t27 -120q-11 -65 -82 -110q47 -25 59.5 -77.5t-9.5 -108.5t-69 -95q-60 -53 -155 -51.5t-136 59.5q-9 11 5 25l30 26 q17 13 25 2q40 -41 97 -39.5t93 37.5q31 31 40 72.5t-15.5 73.5t-83.5 32h-10z" />
<glyph unicode="&#xb4;" horiz-adv-x="348" d="M600 1839q34 29 57 0l9 -10q22 -29 -11 -57l-260 -213q-32 -28 -57 0q-22 28 12 57z" />
<glyph unicode="&#xb6;" horiz-adv-x="1644" d="M1800 1434q23 0 30.5 -9t2.5 -32l-33 -166q-4 -23 -15 -32t-34 -9h-16q-23 0 -30.5 9t-2.5 32l20 108h-86q-23 0 -34 -9t-15 -32l-348 -1794h82q23 0 29.5 -8.5t3.5 -32.5l-2 -16q-3 -23 -14 -32t-35 -9h-275q-23 0 -29.5 8.5t-3.5 32.5l2 16q3 23 14.5 32t35.5 9h81 l349 1794q5 23 -2.5 32t-30.5 9h-326q-23 0 -34 -9t-15 -32l-348 -1794h82q23 0 29.5 -8.5t3.5 -32.5l-2 -16q-3 -23 -14.5 -32t-35.5 -9h-274q-23 0 -29.5 8.5t-3.5 32.5l2 16q3 23 14 32t35 9h82l197 1006q9 51 2.5 59t-57.5 8h-134q-175 0 -276 125.5t-66 305.5 q34 176 175 303t307 127h1042z" />
<glyph unicode="&#xb7;" horiz-adv-x="376" d="M248 754q8 35 37.5 60.5t64.5 25.5t56 -25.5t14 -60.5q-6 -35 -37 -60.5t-66 -25.5t-55.5 25.5t-13.5 60.5z" />
<glyph unicode="&#xb8;" horiz-adv-x="468" d="M25 -229q-16 4 -19 10t2 18l117 232l90 -4l-72 -146q78 28 133 10.5t82 -66.5t15 -108q-10 -48 -36 -88.5t-62 -67t-76.5 -40.5t-82.5 -11t-77 23q-12 6 0 25l24 47q7 11 14 12.5t15 -2.5q62 -23 116 6t66 94q9 40 -13 73.5t-73 33.5q-57 0 -106 -49q-7 -7 -8.5 -8 t-8.5 -4t-12 1z" />
<glyph unicode="&#xb9;" horiz-adv-x="432" d="M440 1425q9 9 23 9h45q15 0 12 -17l-106 -549q-3 -16 -21 -16h-49q-15 0 -12 16l88 453l-74 -61q-15 -12 -24 0l-23 28q-9 12 4 23z" />
<glyph unicode="&#xba;" horiz-adv-x="667" d="M780 1108q-25 -125 -103 -192.5t-179 -67.5q-102 0 -154 68t-27 192l13 70q25 125 103 192.5t179 67.5q102 0 154 -68t27 -192zM508 905q170 0 215 223l4 29q45 223 -125 223t-215 -223l-4 -29q-45 -223 125 -223z" />
<glyph unicode="&#xbb;" horiz-adv-x="972" d="M166 141q-17 -12 -27.5 -7t-7.5 20l16 84q2 11 4 16t8.5 13t18.5 18l260 215q14 11 4 24l-176 215q-18 22 -12 47l16 84q3 15 15.5 20t23.5 -7l291 -348q19 -22 -8 -46zM526 141q-17 -12 -27 -7t-7 20l16 84q2 11 4 16t8.5 13t18.5 18l260 215q14 11 4 24l-176 215 q-18 23 -13 47l17 84q3 15 15.5 20t23.5 -7l291 -348q19 -22 -9 -46z" />
<glyph unicode="&#xbc;" horiz-adv-x="1341" d="M293 653q4 23 12 30t29 7h82l121 619l-125 -105q-11 -8 -16.5 -8t-14.5 10l-21 25q-7 11 -5.5 16.5t12.5 14.5l194 161q13 11 25 11h37q22 0 16 -23l-139 -721h80q21 0 26.5 -7t1.5 -30t-13 -30t-30 -7h-246q-20 0 -25 7t-1 30zM999 1389q12 27 22 36t28 9h20 q19 0 22 -11t-6 -30l-561 -1348q-12 -28 -21 -36.5t-26 -8.5h-20q-35 0 -19 41zM975 37q4 23 12 30t29 7h80l24 123q3 12 -8 12h-332q-13 0 -17 4.5t-1 17.5l4 19q3 20 18 37l447 514q13 16 33 16h39q23 0 18 -22l-96 -498q-3 -12 10 -12h27q22 0 16 -23l-6 -31 q-3 -13 -9 -17.5t-18 -4.5h-26q-12 0 -15 -12l-24 -123h82q21 0 26.5 -7t1.5 -30t-12 -30t-29 -7h-245q-21 0 -27 7t-2 30zM887 297q-9 -12 4 -12h237q10 0 13 12l69 362q0 4 -3 5.5t-7 -2.5z" />
<glyph unicode="&#xbd;" horiz-adv-x="1329" d="M293 653q4 23 12 30t29 7h82l121 619l-125 -105q-11 -8 -16.5 -8t-14.5 10l-21 25q-8 11 -6.5 16t13.5 15l194 161q13 11 25 11h37q22 0 16 -23l-139 -721h80q21 0 26.5 -7t1.5 -30t-13 -30t-30 -7h-246q-20 0 -25 7t-1 30zM999 1389q12 27 22 36t28 9h20q19 0 22 -11 t-6 -30l-561 -1348q-12 -28 -21 -36.5t-26 -8.5h-20q-35 0 -19 41zM1210 23q-6 -23 -28 -23h-373q-21 0 -18 23l18 102q13 65 49.5 122t82.5 96t98 78t96 68t76.5 65.5t39.5 72.5q11 58 -27 89t-97 25t-105 -45q-20 -16 -33 0l-16 19q-13 16 8 33q78 69 176 69 q85 0 138 -53.5t36 -136.5q-10 -49 -43.5 -93.5t-77.5 -76.5t-95.5 -70t-95.5 -72t-78.5 -83t-45.5 -103l-6 -29q-3 -19 -1 -21.5t21 -2.5h238l8 45q3 21 11.5 28t31.5 7t28.5 -7t2.5 -28z" />
<glyph unicode="&#xbe;" horiz-adv-x="1521" d="M653 842q23 76 -7 125t-93 49q-13 0 -17 5t-1 17l6 35q3 13 8 18t18 5q58 0 95.5 37t48.5 92q11 58 -15.5 94t-70.5 44t-93.5 -3.5t-82.5 -40.5q-10 -9 -17 -9t-14 9l-17 18q-13 16 9 33q78 72 194 72q92 0 146 -60t36 -157q-20 -107 -110 -168q94 -75 59 -207 q-29 -114 -112.5 -174t-188.5 -60q-126 0 -178 78q-12 20 8 37l19 17q21 16 34 -3q40 -50 112.5 -53.5t138 39t85.5 111.5zM1180 1389q12 27 21.5 36t27.5 9h20q33 0 17 -41l-561 -1348q-12 -28 -21.5 -36.5t-26.5 -8.5h-20q-35 0 -19 41zM1155 37q4 23 12 30t29 7h80 l24 123q3 12 -8 12h-331q-13 0 -17.5 4.5t-1.5 17.5l4 19q3 18 19 37l446 514q13 16 33 16h39q23 0 18 -22l-96 -498q-3 -12 10 -12h27q22 0 16 -23l-6 -31q-3 -13 -9 -17.5t-18 -4.5h-26q-12 0 -15 -12l-24 -123h82q21 0 26.5 -7t1.5 -30t-12 -30t-28 -7h-246q-21 0 -27 7 t-2 30zM1067 297q-9 -12 4 -12h238q9 0 12 12l70 362q0 4 -3.5 5.5t-7.5 -2.5z" />
<glyph unicode="&#xbf;" horiz-adv-x="864" d="M733 944q-6 -35 -36.5 -60.5t-65.5 -25.5t-55.5 25.5t-14.5 60.5q8 35 38 60.5t65 25.5t55.5 -25.5t13.5 -60.5zM379 -420q-149 0 -236 94t-57 242q12 64 39 116.5t61 91t74 75t80.5 76.5t76.5 86t66.5 114t46.5 150q4 23 15.5 32t34.5 9h28q23 0 30.5 -9t2.5 -32l-4 -21 q-17 -89 -48.5 -162t-68.5 -121.5t-78 -89.5t-81 -74.5t-73.5 -67t-59 -77.5t-35.5 -96q-21 -105 44 -171.5t166 -66.5q119 0 234 95q32 27 55 0l8 -11q22 -28 -12 -59q-135 -123 -309 -123z" />
<glyph unicode="&#xc0;" horiz-adv-x="1413" d="M1165 1649q24 -30 -12 -58q-33 -30 -57 0l-174 213q-24 31 10 58l12 10q35 28 57 0zM999 1434q18 0 25 -1.5t13.5 -10.5t9.5 -29l196 -1295h66q23 0 30.5 -9t1.5 -32l-4 -16q-6 -24 -15 -32.5t-32 -8.5h-227q-24 0 -32.5 9t-2.5 32l4 16q6 24 16 32.5t33 8.5h49l-43 283 q-3 19 -9.5 24t-26.5 5h-529q-21 0 -30 -5t-19 -24l-156 -283h50q23 0 30.5 -9t1.5 -32l-4 -16q-6 -24 -15 -32.5t-32 -8.5h-225q-24 0 -32.5 9t-2.5 32l4 16q6 24 16 32.5t33 8.5h64l672 1237h-50q-23 0 -30.5 9t-1.5 32l4 17q6 24 16 32.5t33 8.5h151zM963 1255 q-2 10 -10.5 10.5t-14.5 -10.5l-385 -725q-11 -22 10 -22h484q21 0 18 22z" />
<glyph unicode="&#xc1;" horiz-adv-x="1413" d="M1143 1872q34 29 57 0l8 -10q23 -30 -10 -58l-260 -213q-32 -28 -57 0q-22 29 12 58zM999 1434q18 0 25 -1.5t13.5 -10.5t9.5 -29l196 -1295h66q23 0 30.5 -9t1.5 -32l-4 -16q-6 -24 -15 -32.5t-32 -8.5h-227q-24 0 -32.5 9t-2.5 32l4 16q6 24 16 32.5t33 8.5h49l-43 283 q-3 19 -9.5 24t-26.5 5h-529q-21 0 -30 -5t-19 -24l-156 -283h50q23 0 30.5 -9t1.5 -32l-4 -16q-6 -24 -15 -32.5t-32 -8.5h-225q-24 0 -32.5 9t-2.5 32l4 16q6 24 16 32.5t33 8.5h64l672 1237h-50q-23 0 -30.5 9t-1.5 32l4 17q6 24 16 32.5t33 8.5h151zM963 1255 q-2 10 -10.5 10.5t-14.5 -10.5l-385 -725q-11 -22 10 -22h484q21 0 18 22z" />
<glyph unicode="&#xc2;" horiz-adv-x="1413" d="M1038 1872q36 28 58 0l176 -213q22 -28 -10 -57l-13 -11q-35 -28 -57 0l-127 172q-16 19 -37 0l-192 -172q-35 -30 -58 0l-8 11q-25 28 10 57zM999 1434q18 0 25 -1.5t13.5 -10.5t9.5 -29l196 -1295h66q23 0 30.5 -9t1.5 -32l-4 -16q-6 -24 -15 -32.5t-32 -8.5h-227 q-24 0 -32.5 9t-2.5 32l4 16q6 24 16 32.5t33 8.5h49l-43 283q-3 19 -9.5 24t-26.5 5h-529q-21 0 -30 -5t-19 -24l-156 -283h50q23 0 30.5 -9t1.5 -32l-4 -16q-6 -24 -15 -32.5t-32 -8.5h-225q-24 0 -32.5 9t-2.5 32l4 16q6 24 16 32.5t33 8.5h64l672 1237h-50 q-23 0 -30.5 9t-1.5 32l4 17q6 24 16 32.5t33 8.5h151zM963 1255q-2 10 -10.5 10.5t-14.5 -10.5l-385 -725q-11 -22 10 -22h484q21 0 18 22z" />
<glyph unicode="&#xc3;" horiz-adv-x="1413" d="M1137 1577q-34 0 -67.5 17t-56 37.5t-52 37.5t-56.5 17q-15 0 -29 -5t-23.5 -10t-23 -18.5t-18 -18.5t-18.5 -23t-15 -20q-18 -18 -35 -6l-36 25q-15 12 -2 30q53 73 101.5 105.5t111.5 32.5q34 0 67.5 -17t56.5 -37.5t52.5 -37.5t56.5 -17q17 0 32.5 5t30 18t22 20.5 t23.5 27t19 23.5q15 18 35 6l35 -24q17 -14 2 -31q-52 -72 -101 -104.5t-112 -32.5zM999 1434q18 0 25 -1.5t13.5 -10.5t9.5 -29l196 -1295h66q23 0 30.5 -9t1.5 -32l-4 -16q-6 -24 -15 -32.5t-32 -8.5h-227q-24 0 -32.5 9t-2.5 32l4 16q6 24 16 32.5t33 8.5h49l-43 283 q-3 19 -9.5 24t-26.5 5h-529q-21 0 -30 -5t-19 -24l-156 -283h50q23 0 30.5 -9t1.5 -32l-4 -16q-6 -24 -15 -32.5t-32 -8.5h-225q-24 0 -32.5 9t-2.5 32l4 16q6 24 16 32.5t33 8.5h64l672 1237h-50q-23 0 -30.5 9t-1.5 32l4 17q6 24 16 32.5t33 8.5h151zM963 1255 q-2 10 -10.5 10.5t-14.5 -10.5l-385 -725q-11 -22 10 -22h484q21 0 18 22z" />
<glyph unicode="&#xc4;" horiz-adv-x="1413" d="M805 1663q8 35 38.5 60.5t65.5 25.5t55 -25.5t13 -60.5q-6 -35 -37 -60.5t-66 -25.5t-55 25.5t-14 60.5zM1073 1663q7 35 38.5 60.5t66.5 25.5t55 -25.5t12 -60.5q-6 -35 -36.5 -60.5t-65.5 -25.5t-55.5 25.5t-14.5 60.5zM999 1434q18 0 25 -1.5t13.5 -10.5t9.5 -29 l196 -1295h66q23 0 30.5 -9t1.5 -32l-4 -16q-6 -24 -15 -32.5t-32 -8.5h-227q-24 0 -32.5 9t-2.5 32l4 16q6 24 16 32.5t33 8.5h49l-43 283q-3 19 -9.5 24t-26.5 5h-529q-21 0 -30 -5t-19 -24l-156 -283h50q23 0 30.5 -9t1.5 -32l-4 -16q-6 -24 -15 -32.5t-32 -8.5h-225 q-24 0 -32.5 9t-2.5 32l4 16q6 24 16 32.5t33 8.5h64l672 1237h-50q-23 0 -30.5 9t-1.5 32l4 17q6 24 16 32.5t33 8.5h151zM963 1255q-2 10 -10.5 10.5t-14.5 -10.5l-385 -725q-11 -22 10 -22h484q21 0 18 22z" />
<glyph unicode="&#xc5;" horiz-adv-x="1413" d="M1012 1577q-69 0 -110 50.5t-28 119.5q13 70 73.5 121t129.5 51q71 0 112 -51t28 -121q-14 -69 -74.5 -119.5t-130.5 -50.5zM952 1747q-7 -39 14 -65.5t60 -26.5q40 0 72 26t39 66q8 38 -14 65t-62 27q-38 0 -69.5 -27t-39.5 -65zM999 1434q18 0 25 -1.5t13.5 -10.5 t9.5 -29l196 -1295h66q23 0 30.5 -9t1.5 -32l-4 -16q-6 -24 -15 -32.5t-32 -8.5h-227q-24 0 -32.5 9t-2.5 32l4 16q6 24 16 32.5t33 8.5h49l-43 283q-3 19 -9.5 24t-26.5 5h-529q-21 0 -30 -5t-19 -24l-156 -283h50q23 0 30.5 -9t1.5 -32l-4 -16q-6 -24 -15 -32.5t-32 -8.5 h-225q-24 0 -32.5 9t-2.5 32l4 16q6 24 16 32.5t33 8.5h64l672 1237h-50q-23 0 -30.5 9t-1.5 32l4 17q6 24 16 32.5t33 8.5h151zM963 1255q-2 10 -10.5 10.5t-14.5 -10.5l-385 -725q-11 -22 10 -22h484q21 0 18 22z" />
<glyph unicode="&#xc6;" horiz-adv-x="1595" d="M844 139q-6 -31 -2 -36t35 -5h536l21 109q4 23 15 32t34 9h16q23 0 30.5 -9t2.5 -32l-33 -166q-5 -24 -14.5 -32.5t-32.5 -8.5h-704q-24 0 -31.5 9t-3.5 32l71 369h-266q-20 0 -28 -5.5t-17 -23.5l-156 -283h50q23 0 30.5 -9t1.5 -32l-4 -16q-6 -24 -15 -32.5t-32 -8.5 h-225q-24 0 -32.5 9t-2.5 32l4 16q6 24 16 32.5t33 8.5h64l672 1237h-50q-23 0 -30.5 9t-1.5 32l4 17q6 24 16 32.5t33 8.5h883q23 0 30 -9t2 -32l-32 -166q-4 -23 -15.5 -32t-34.5 -9h-16q-23 0 -30.5 9t-2.5 32l21 108h-537q-31 0 -37 -5t-12 -36l-86 -448q-6 -31 -2 -36 t35 -5h491q24 0 31.5 -9t1.5 -32l-4 -16q-6 -24 -15 -32.5t-32 -8.5h-492q-31 0 -37 -5t-12 -36zM553 530q-5 -12 -1 -17t13 -5h238l149 758q-8 0 -14 -11z" />
<glyph unicode="&#xc7;" horiz-adv-x="1304" d="M1460 1434q23 0 30.5 -9t2.5 -32l-33 -166q-4 -23 -15 -32t-34 -9h-16q-23 0 -30.5 9t-2.5 32l8 41q-37 20 -61.5 32t-88.5 27.5t-133 15.5q-170 0 -327.5 -84t-266 -227.5t-141.5 -314.5q-34 -171 19 -315t178 -228t295 -84q150 0 311 76l8 41q4 23 15 32t34 9h17 q23 0 30.5 -9t2.5 -32l-33 -166q-5 -24 -14.5 -32.5t-32.5 -8.5h-17q-24 0 -31.5 9t-3.5 32l3 14q-147 -63 -308 -63h-34l-56 -111q78 28 133 10.5t82 -66.5t15 -108q-10 -48 -36 -88.5t-62 -67t-76.5 -40.5t-82.5 -11t-77 23q-12 6 0 25l24 47q7 11 14 12.5t15 -2.5 q62 -23 116 6t66 94q9 40 -13 73.5t-73 33.5q-57 0 -106 -49q-7 -7 -8.5 -8t-8.5 -4t-12 1l-29 9q-16 4 -19 10t3 18l102 203q-248 45 -380 247.5t-80 467.5q37 196 166.5 363t315.5 264.5t382 97.5q154 0 285 -64l4 15q6 24 16 32.5t33 8.5h16z" />
<glyph unicode="&#xc8;" horiz-adv-x="1114" d="M1055 1651q23 -30 -13 -58q-33 -30 -57 0l-174 213q-24 31 10 58l13 10q35 28 57 0zM1249 1434q23 0 30.5 -9t2.5 -32l-33 -166q-4 -23 -15 -32t-34 -9h-16q-23 0 -30.5 9t-2.5 32l20 108h-536q-31 0 -37 -5t-12 -36l-86 -448q-6 -31 -2 -36t34 -5h492q24 0 31.5 -9 t1.5 -32l-4 -16q-6 -24 -15 -32.5t-32 -8.5h-492q-31 0 -37 -5t-12 -36l-103 -527q-6 -31 -2 -36t35 -5h537l20 109q4 23 15 32t34 9h17q23 0 30.5 -9t2.5 -32l-33 -166q-5 -24 -14.5 -32.5t-32.5 -8.5h-828q-24 0 -32 9t-2 32l4 16q6 24 16 32.5t33 8.5h80l241 1237h-82 q-23 0 -30.5 9t-1.5 32l4 17q6 24 16 32.5t33 8.5h827z" />
<glyph unicode="&#xc9;" horiz-adv-x="1114" d="M1071 1874q34 29 57 0l9 -10q23 -29 -11 -58l-260 -213q-32 -28 -57 0q-22 29 12 58zM1249 1434q23 0 30.5 -9t2.5 -32l-33 -166q-4 -23 -15 -32t-34 -9h-16q-23 0 -30.5 9t-2.5 32l20 108h-536q-31 0 -37 -5t-12 -36l-86 -448q-6 -31 -2 -36t34 -5h492q24 0 31.5 -9 t1.5 -32l-4 -16q-6 -24 -15 -32.5t-32 -8.5h-492q-31 0 -37 -5t-12 -36l-103 -527q-6 -31 -2 -36t35 -5h537l20 109q4 23 15 32t34 9h17q23 0 30.5 -9t2.5 -32l-33 -166q-5 -24 -14.5 -32.5t-32.5 -8.5h-828q-24 0 -32 9t-2 32l4 16q6 24 16 32.5t33 8.5h80l241 1237h-82 q-23 0 -30.5 9t-1.5 32l4 17q6 24 16 32.5t33 8.5h827z" />
<glyph unicode="&#xca;" horiz-adv-x="1114" d="M952 1874q36 28 58 0l176 -213q22 -28 -10 -57l-13 -11q-35 -28 -57 0l-127 172q-16 19 -37 0l-192 -172q-35 -30 -58 0l-8 11q-25 28 10 57zM1249 1434q23 0 30.5 -9t2.5 -32l-33 -166q-4 -23 -15 -32t-34 -9h-16q-23 0 -30.5 9t-2.5 32l20 108h-536q-31 0 -37 -5 t-12 -36l-86 -448q-6 -31 -2 -36t34 -5h492q24 0 31.5 -9t1.5 -32l-4 -16q-6 -24 -15 -32.5t-32 -8.5h-492q-31 0 -37 -5t-12 -36l-103 -527q-6 -31 -2 -36t35 -5h537l20 109q4 23 15 32t34 9h17q23 0 30.5 -9t2.5 -32l-33 -166q-5 -24 -14.5 -32.5t-32.5 -8.5h-828 q-24 0 -32 9t-2 32l4 16q6 24 16 32.5t33 8.5h80l241 1237h-82q-23 0 -30.5 9t-1.5 32l4 17q6 24 16 32.5t33 8.5h827z" />
<glyph unicode="&#xcb;" horiz-adv-x="1114" d="M717 1663q8 35 38.5 60.5t65.5 25.5t55 -25.5t13 -60.5q-6 -35 -37 -60.5t-66 -25.5t-55 25.5t-14 60.5zM985 1663q7 35 38.5 60.5t66.5 25.5t55 -25.5t12 -60.5q-6 -35 -36.5 -60.5t-65.5 -25.5t-55.5 25.5t-14.5 60.5zM1249 1434q23 0 30.5 -9t2.5 -32l-33 -166 q-4 -23 -15 -32t-34 -9h-16q-23 0 -30.5 9t-2.5 32l20 108h-536q-31 0 -37 -5t-12 -36l-86 -448q-6 -31 -2 -36t34 -5h492q24 0 31.5 -9t1.5 -32l-4 -16q-6 -24 -15 -32.5t-32 -8.5h-492q-31 0 -37 -5t-12 -36l-103 -527q-6 -31 -2 -36t35 -5h537l20 109q4 23 15 32t34 9h17 q23 0 30.5 -9t2.5 -32l-33 -166q-5 -24 -14.5 -32.5t-32.5 -8.5h-828q-24 0 -32 9t-2 32l4 16q6 24 16 32.5t33 8.5h80l241 1237h-82q-23 0 -30.5 9t-1.5 32l4 17q6 24 16 32.5t33 8.5h827z" />
<glyph unicode="&#xcc;" horiz-adv-x="561" d="M737 1649q24 -30 -12 -58q-33 -30 -57 0l-174 213q-24 31 10 58l12 10q35 28 57 0zM373 1393q6 24 16 32.5t33 8.5h274q24 0 31.5 -9t1.5 -32l-4 -17q-6 -24 -16 -32.5t-33 -8.5h-82l-242 -1237h84q24 0 31.5 -9t1.5 -32l-4 -16q-6 -24 -15 -32.5t-32 -8.5h-275 q-24 0 -32 9t-2 32l4 16q6 24 16 32.5t33 8.5h80l241 1237h-82q-23 0 -30.5 9t-1.5 32z" />
<glyph unicode="&#xcd;" horiz-adv-x="561" d="M713 1872q34 29 57 0l8 -10q23 -30 -10 -58l-260 -213q-32 -28 -57 0q-22 29 12 58zM373 1393q6 24 16 32.5t33 8.5h274q24 0 31.5 -9t1.5 -32l-4 -17q-6 -24 -16 -32.5t-33 -8.5h-82l-242 -1237h84q24 0 31.5 -9t1.5 -32l-4 -16q-6 -24 -15 -32.5t-32 -8.5h-275 q-24 0 -32 9t-2 32l4 16q6 24 16 32.5t33 8.5h80l241 1237h-82q-23 0 -30.5 9t-1.5 32z" />
<glyph unicode="&#xce;" horiz-adv-x="561" d="M614 1872q36 28 58 0l176 -213q22 -28 -10 -57l-13 -11q-35 -28 -57 0l-127 172q-16 19 -37 0l-192 -172q-35 -30 -58 0l-8 11q-25 28 10 57zM373 1393q6 24 16 32.5t33 8.5h274q24 0 31.5 -9t1.5 -32l-4 -17q-6 -24 -16 -32.5t-33 -8.5h-82l-242 -1237h84q24 0 31.5 -9 t1.5 -32l-4 -16q-6 -24 -15 -32.5t-32 -8.5h-275q-24 0 -32 9t-2 32l4 16q6 24 16 32.5t33 8.5h80l241 1237h-82q-23 0 -30.5 9t-1.5 32z" />
<glyph unicode="&#xcf;" horiz-adv-x="561" d="M379 1663q8 35 38.5 60.5t65.5 25.5t55 -25.5t13 -60.5q-6 -35 -36.5 -60.5t-65.5 -25.5t-55.5 25.5t-14.5 60.5zM647 1663q7 35 38.5 60.5t66.5 25.5t55 -25.5t12 -60.5q-6 -35 -36.5 -60.5t-65.5 -25.5t-55.5 25.5t-14.5 60.5zM373 1393q6 24 16 32.5t33 8.5h274 q24 0 31.5 -9t1.5 -32l-4 -17q-6 -24 -16 -32.5t-33 -8.5h-82l-242 -1237h84q24 0 31.5 -9t1.5 -32l-4 -16q-6 -24 -15 -32.5t-32 -8.5h-275q-24 0 -32 9t-2 32l4 16q6 24 16 32.5t33 8.5h80l241 1237h-82q-23 0 -30.5 9t-1.5 32z" />
<glyph unicode="&#xd0;" horiz-adv-x="1488" d="M463 1118l41 217h-82q-24 0 -31.5 9t-1.5 32l4 17q6 24 16 32.5t33 8.5h506q150 0 271.5 -50t200 -143t109 -225.5t-2.5 -298.5q-42 -216 -170 -380.5t-306.5 -250.5t-379.5 -86h-506q-24 0 -32.5 9t-2.5 32l4 16q6 24 16 32.5t33 8.5h80l158 807q3 12 -1 16.5t-16 4.5 h-81q-24 0 -31.5 9t-1.5 32l4 16q6 24 16 32.5t33 8.5h82q22 0 25 20zM383 139q-6 -31 -2 -36t35 -5h272q176 0 327.5 74.5t257 216t142.5 328.5q36 187 -14.5 328t-173 215.5t-299.5 74.5h-273q-31 0 -37 -5t-12 -36l-47 -250q-1 -10 4.5 -15t16.5 -5h176q23 0 30.5 -9 t1.5 -32l-4 -16q-6 -24 -16 -32.5t-33 -8.5h-178q-13 0 -18.5 -4t-8.5 -17z" />
<glyph unicode="&#xd1;" horiz-adv-x="1468" d="M1163 1577q-34 0 -67.5 17t-55.5 37.5t-51.5 37.5t-56.5 17q-15 0 -29 -5t-23.5 -10t-23 -18.5t-18 -18.5t-18.5 -23t-15 -20q-18 -18 -35 -6l-37 25q-15 12 -2 30q53 73 101.5 105.5t111.5 32.5q34 0 68 -17t56.5 -37.5t52.5 -37.5t57 -17q17 0 32.5 5t30 18t22 20.5 t23.5 27t19 23.5q14 17 34 6l35 -24q17 -14 2 -31q-52 -72 -101 -104.5t-112 -32.5zM113 57q6 24 16 32.5t33 8.5h80l241 1237h-82q-23 0 -30.5 9t-1.5 32l4 17q6 24 16 32.5t33 8.5h143q9 0 14 -1t8.5 -5t5 -7t5.5 -12l561 -1153q5 -10 13 -8.5t10 12.5l209 1075h-82 q-24 0 -31.5 9t-1.5 32l4 17q6 24 16 32.5t33 8.5h275q23 0 30.5 -9t1.5 -32l-4 -17q-6 -24 -16 -32.5t-33 -8.5h-82l-252 -1294q-5 -24 -14.5 -32.5t-32.5 -8.5h-20q-16 0 -22 5t-13 20l-561 1153q-5 10 -13 8.5t-10 -12.5l-211 -1076h84q24 0 31.5 -9t1.5 -32l-4 -16 q-6 -24 -15 -32.5t-32 -8.5h-275q-24 0 -32 9t-2 32z" />
<glyph unicode="&#xd2;" d="M1284 1651q24 -30 -12 -58q-34 -31 -58 0l-174 213q-24 31 11 58l12 10q35 28 57 0zM242 717q28 148 107 281t191.5 231t260 155.5t305.5 57.5q196 0 344.5 -97.5t213.5 -264.5t28 -363q-29 -148 -108.5 -281t-192.5 -231t-260.5 -155.5t-305.5 -57.5q-196 0 -344 97.5 t-212.5 264.5t-26.5 363zM352 717q-34 -171 19 -315t178 -228t295 -84q127 0 251 49.5t222 134t168.5 200t95.5 243.5q33 171 -20.5 314.5t-178.5 227.5t-295 84t-327.5 -84t-266 -227.5t-141.5 -314.5z" />
<glyph unicode="&#xd3;" d="M1311 1874q34 29 57 0l8 -10q23 -30 -10 -58l-260 -213q-32 -28 -57 0q-22 29 12 58zM242 717q28 148 107 281t191.5 231t260 155.5t305.5 57.5q196 0 344.5 -97.5t213.5 -264.5t28 -363q-29 -148 -108.5 -281t-192.5 -231t-260.5 -155.5t-305.5 -57.5q-196 0 -344 97.5 t-212.5 264.5t-26.5 363zM352 717q-34 -171 19 -315t178 -228t295 -84q127 0 251 49.5t222 134t168.5 200t95.5 243.5q33 171 -20.5 314.5t-178.5 227.5t-295 84t-327.5 -84t-266 -227.5t-141.5 -314.5z" />
<glyph unicode="&#xd4;" d="M1159 1872q36 28 58 0l176 -213q22 -28 -11 -57l-12 -11q-35 -28 -57 0l-127 172q-16 19 -37 0l-193 -172q-34 -29 -57 0l-8 11q-25 28 10 57zM242 717q28 148 107 281t191.5 231t260 155.5t305.5 57.5q196 0 344.5 -97.5t213.5 -264.5t28 -363q-29 -148 -108.5 -281 t-192.5 -231t-260.5 -155.5t-305.5 -57.5q-196 0 -344 97.5t-212.5 264.5t-26.5 363zM352 717q-34 -171 19 -315t178 -228t295 -84q127 0 251 49.5t222 134t168.5 200t95.5 243.5q33 171 -20.5 314.5t-178.5 227.5t-295 84t-327.5 -84t-266 -227.5t-141.5 -314.5z" />
<glyph unicode="&#xd5;" d="M1257 1579q-34 0 -66.5 16.5t-54.5 37t-51.5 37t-56.5 16.5q-14 0 -28 -5t-23 -10t-22.5 -18.5t-18 -19t-18 -23t-15.5 -19.5q-16 -16 -35 -6l-37 25q-15 12 -2 30q52 73 101 105.5t110 32.5q34 0 68 -17t56.5 -37.5t52 -37.5t55.5 -17q17 0 32.5 5t30 18t22 20.5 t23.5 27t19 23.5q14 17 33 6l34 -24q17 -14 2 -31q-50 -72 -98.5 -103.5t-112.5 -31.5zM242 717q28 148 107 281t191.5 231t260 155.5t305.5 57.5q196 0 344.5 -97.5t213.5 -264.5t28 -363q-29 -148 -108.5 -281t-192.5 -231t-260.5 -155.5t-305.5 -57.5q-196 0 -344 97.5 t-212.5 264.5t-26.5 363zM352 717q-34 -171 19 -315t178 -228t295 -84q127 0 251 49.5t222 134t168.5 200t95.5 243.5q33 171 -20.5 314.5t-178.5 227.5t-295 84t-327.5 -84t-266 -227.5t-141.5 -314.5z" />
<glyph unicode="&#xd6;" d="M926 1663q8 35 38.5 60.5t65.5 25.5t55 -25.5t13 -60.5q-6 -35 -37 -60.5t-66 -25.5t-55 25.5t-14 60.5zM1194 1663q8 35 38.5 60.5t65.5 25.5t55 -25.5t13 -60.5q-6 -35 -36.5 -60.5t-65.5 -25.5t-55.5 25.5t-14.5 60.5zM242 717q28 148 107 281t191.5 231t260 155.5 t305.5 57.5q196 0 344.5 -97.5t213.5 -264.5t28 -363q-29 -148 -108.5 -281t-192.5 -231t-260.5 -155.5t-305.5 -57.5q-196 0 -344 97.5t-212.5 264.5t-26.5 363zM352 717q-34 -171 19 -315t178 -228t295 -84q127 0 251 49.5t222 134t168.5 200t95.5 243.5 q33 171 -20.5 314.5t-178.5 227.5t-295 84t-327.5 -84t-266 -227.5t-141.5 -314.5z" />
<glyph unicode="&#xd7;" horiz-adv-x="774" d="M621 770q-12 -9 -13.5 -14.5t6.5 -14.5l148 -182q11 -17 8.5 -29.5t-20.5 -27.5l-15 -13q-20 -17 -32 -17t-25 17l-148 183q-8 9 -13 9t-15 -9l-217 -183q-20 -17 -33.5 -17t-26.5 17l-12 15q-11 13 -8 25.5t24 29.5l217 182q17 14 7 29l-148 182q-14 17 -12 29t22 29 l15 12q22 17 33.5 17t23.5 -17l148 -182q7 -9 12 -9t16 9l221 184q20 16 32 16.5t26 -16.5l10 -12q24 -30 -12 -58z" />
<glyph unicode="&#xd8;" d="M242 717q28 148 107 281t191.5 231t260 155.5t305.5 57.5q178 0 324 -84l24 31q29 34 39 39.5t41 5.5h20q16 0 20 -11t-9 -30l-68 -84q122 -100 175 -256t20 -336q-29 -148 -108.5 -281t-192.5 -231t-260.5 -155.5t-305.5 -57.5q-179 0 -325 84l-25 -31 q-26 -34 -36 -39.5t-42 -5.5h-20q-16 0 -20.5 11t8.5 30l67 84q-122 100 -173.5 256t-16.5 336zM352 717q-30 -155 10 -287.5t140 -218.5l858 1061q-120 71 -273 71q-170 0 -327.5 -84t-266 -227.5t-141.5 -314.5zM1581 717q29 153 -12.5 286.5t-141.5 219.5l-858 -1061 q116 -72 275 -72q127 0 251 49.5t222 134t168.5 200t95.5 243.5z" />
<glyph unicode="&#xd9;" horiz-adv-x="1466" d="M1149 1651q24 -30 -12 -58q-34 -31 -58 0l-174 213q-24 31 10 58l13 10q35 28 57 0zM1278 1393q6 24 16 32.5t33 8.5h275q23 0 30.5 -9t1.5 -32l-4 -17q-6 -24 -16 -32.5t-33 -8.5h-82l-158 -811q-34 -173 -127.5 -297.5t-218 -182t-264.5 -52.5q-106 4 -189.5 37 t-142.5 98.5t-78 164t5 232.5l157 811h-82q-23 0 -30.5 9t-1.5 32l4 17q6 24 16 32.5t33 8.5h274q24 0 31.5 -9t1.5 -32l-4 -17q-6 -24 -16 -32.5t-33 -8.5h-82l-160 -823q-20 -109 -5 -188.5t61.5 -131.5t112 -77t147.5 -25q171 0 304.5 107.5t174.5 314.5l160 823h-82 q-24 0 -31.5 9t-1.5 32z" />
<glyph unicode="&#xda;" horiz-adv-x="1466" d="M1206 1872q35 30 58 0l8 -10q23 -30 -10 -58l-261 -213q-32 -28 -57 0q-22 29 12 58zM1278 1393q6 24 16 32.5t33 8.5h275q23 0 30.5 -9t1.5 -32l-4 -17q-6 -24 -16 -32.5t-33 -8.5h-82l-158 -811q-34 -173 -127.5 -297.5t-218 -182t-264.5 -52.5q-106 4 -189.5 37 t-142.5 98.5t-78 164t5 232.5l157 811h-82q-23 0 -30.5 9t-1.5 32l4 17q6 24 16 32.5t33 8.5h274q24 0 31.5 -9t1.5 -32l-4 -17q-6 -24 -16 -32.5t-33 -8.5h-82l-160 -823q-20 -109 -5 -188.5t61.5 -131.5t112 -77t147.5 -25q171 0 304.5 107.5t174.5 314.5l160 823h-82 q-24 0 -31.5 9t-1.5 32z" />
<glyph unicode="&#xdb;" horiz-adv-x="1466" d="M1067 1874q35 28 57 0l176 -213q22 -28 -10 -57l-12 -11q-35 -28 -57 0l-127 172q-16 19 -37 0l-193 -172q-34 -29 -57 0l-8 11q-25 28 10 57zM1278 1393q6 24 16 32.5t33 8.5h275q23 0 30.5 -9t1.5 -32l-4 -17q-6 -24 -16 -32.5t-33 -8.5h-82l-158 -811 q-34 -173 -127.5 -297.5t-218 -182t-264.5 -52.5q-106 4 -189.5 37t-142.5 98.5t-78 164t5 232.5l157 811h-82q-23 0 -30.5 9t-1.5 32l4 17q6 24 16 32.5t33 8.5h274q24 0 31.5 -9t1.5 -32l-4 -17q-6 -24 -16 -32.5t-33 -8.5h-82l-160 -823q-20 -109 -5 -188.5t61.5 -131.5 t112 -77t147.5 -25q171 0 304.5 107.5t174.5 314.5l160 823h-82q-24 0 -31.5 9t-1.5 32z" />
<glyph unicode="&#xdc;" horiz-adv-x="1466" d="M831 1663q7 35 38.5 60.5t66.5 25.5t55 -25.5t13 -60.5q-6 -35 -37 -60.5t-66 -25.5t-55.5 25.5t-14.5 60.5zM1100 1663q8 35 38.5 60.5t65.5 25.5t55 -25.5t13 -60.5q-6 -35 -37 -60.5t-66 -25.5t-55 25.5t-14 60.5zM1278 1393q6 24 16 32.5t33 8.5h275q23 0 30.5 -9 t1.5 -32l-4 -17q-6 -24 -16 -32.5t-33 -8.5h-82l-158 -811q-34 -173 -127.5 -297.5t-218 -182t-264.5 -52.5q-106 4 -189.5 37t-142.5 98.5t-78 164t5 232.5l157 811h-82q-23 0 -30.5 9t-1.5 32l4 17q6 24 16 32.5t33 8.5h274q24 0 31.5 -9t1.5 -32l-4 -17q-6 -24 -16 -32.5 t-33 -8.5h-82l-160 -823q-20 -109 -5 -188.5t61.5 -131.5t112 -77t147.5 -25q171 0 304.5 107.5t174.5 314.5l160 823h-82q-24 0 -31.5 9t-1.5 32z" />
<glyph unicode="&#xdd;" horiz-adv-x="1277" d="M1112 1872q34 29 57 0l9 -10q23 -29 -11 -58l-260 -213q-32 -28 -57 0q-22 29 12 58zM512 1434q24 0 31 -4t14 -25l225 -567q3 -8 11 -8t14 8l442 567q17 21 25.5 25t32.5 4h127q23 0 30.5 -9t1.5 -32l-4 -17q-6 -24 -16 -32.5t-33 -8.5h-84l-500 -630l-118 -607h84 q23 0 30.5 -9t1.5 -32l-4 -16q-6 -24 -15 -32.5t-32 -8.5h-274q-24 0 -32.5 9t-2.5 32l4 16q6 24 16 32.5t33 8.5h80l119 607l-252 630h-86q-24 0 -31.5 9t-1.5 32l4 17q6 24 16 32.5t33 8.5h111z" />
<glyph unicode="&#xde;" horiz-adv-x="1163" d="M373 1393q6 24 16 32.5t33 8.5h274q24 0 31.5 -9t1.5 -32l-4 -17q-6 -24 -16 -32.5t-33 -8.5h-82l-25 -125q-6 -31 -2 -36t35 -5h219q96 0 171.5 -23t123.5 -64t78 -98t34 -125t-9 -144q-19 -96 -65.5 -177.5t-117.5 -144t-171.5 -98t-219.5 -35.5h-219q-31 0 -37 -5 t-12 -36l-25 -121h84q24 0 31.5 -9t1.5 -32l-4 -16q-6 -24 -15 -32.5t-32 -8.5h-275q-24 0 -32 9t-2 32l4 16q6 24 16 32.5t33 8.5h80l241 1237h-82q-23 0 -30.5 9t-1.5 32zM584 1071q-31 0 -37 -5t-12 -36l-123 -631q-5 -31 -0.5 -36t34.5 -5h213q196 0 310 98t145 259 q17 75 5.5 140t-46.5 113t-105.5 75.5t-170.5 27.5h-213z" />
<glyph unicode="&#xdf;" horiz-adv-x="1112" d="M403 926h-79q-24 0 -32.5 9t-2.5 32l4 16q6 24 16 32.5t33 8.5h80q42 214 203 329q127 92 275 86q136 -5 210 -92q77 -89 49 -231q-9 -47 -36.5 -95.5t-61 -87.5t-66.5 -75.5t-58 -73.5t-30 -67q-7 -35 5.5 -68.5t37 -58t52.5 -55.5t51.5 -60.5t35 -73.5t1.5 -94 q-18 -88 -97.5 -171.5t-212.5 -137.5q-13 -6 -21.5 -6.5t-13.5 4.5t-7 9t-5 15l-6 31q-3 20 5 33.5t36 24.5q83 35 142.5 87t72.5 111q8 39 -11.5 75t-52 67.5t-64.5 67t-49 87t-5 113.5q9 48 35.5 91.5t58.5 76.5t64 65.5t58.5 74.5t35.5 89q24 122 -57 187q-70 57 -177 39 q-121 -20 -203 -126q-60 -78 -81 -188l-181 -928h82q24 0 31.5 -9t1.5 -32l-4 -16q-6 -24 -15 -32.5t-32 -8.5h-275q-24 0 -32 9t-2 32l4 16q6 24 16 32.5t33 8.5h82z" />
<glyph unicode="&#xe0;" horiz-adv-x="1413" d="M805 1663q8 35 38.5 60.5t65.5 25.5t55 -25.5t13 -60.5q-6 -35 -37 -60.5t-66 -25.5t-55 25.5t-14 60.5zM1073 1663q7 35 38.5 60.5t66.5 25.5t55 -25.5t12 -60.5q-6 -35 -36.5 -60.5t-65.5 -25.5t-55.5 25.5t-14.5 60.5zM999 1434q18 0 25 -1.5t13.5 -10.5t9.5 -29 l196 -1295h66q23 0 30.5 -9t1.5 -32l-4 -16q-6 -24 -15 -32.5t-32 -8.5h-227q-24 0 -32.5 9t-2.5 32l4 16q6 24 16 32.5t33 8.5h49l-43 283q-3 19 -9.5 24t-26.5 5h-529q-21 0 -30 -5t-19 -24l-156 -283h50q23 0 30.5 -9t1.5 -32l-4 -16q-6 -24 -15 -32.5t-32 -8.5h-225 q-24 0 -32.5 9t-2.5 32l4 16q6 24 16 32.5t33 8.5h64l672 1237h-50q-23 0 -30.5 9t-1.5 32l4 17q6 24 16 32.5t33 8.5h151zM963 1255q-2 10 -10.5 10.5t-14.5 -10.5l-385 -725q-11 -22 10 -22h484q21 0 18 22z" />
<glyph unicode="&#xe1;" horiz-adv-x="1413" d="M1143 1872q34 29 57 0l8 -10q23 -30 -10 -58l-260 -213q-32 -28 -57 0q-22 29 12 58zM999 1434q18 0 25 -1.5t13.5 -10.5t9.5 -29l196 -1295h66q23 0 30.5 -9t1.5 -32l-4 -16q-6 -24 -15 -32.5t-32 -8.5h-227q-24 0 -32.5 9t-2.5 32l4 16q6 24 16 32.5t33 8.5h49l-43 283 q-3 19 -9.5 24t-26.5 5h-529q-21 0 -30 -5t-19 -24l-156 -283h50q23 0 30.5 -9t1.5 -32l-4 -16q-6 -24 -15 -32.5t-32 -8.5h-225q-24 0 -32.5 9t-2.5 32l4 16q6 24 16 32.5t33 8.5h64l672 1237h-50q-23 0 -30.5 9t-1.5 32l4 17q6 24 16 32.5t33 8.5h151zM963 1255 q-2 10 -10.5 10.5t-14.5 -10.5l-385 -725q-11 -22 10 -22h484q21 0 18 22z" />
<glyph unicode="&#xe2;" horiz-adv-x="1413" d="M1038 1872q36 28 58 0l176 -213q22 -28 -10 -57l-13 -11q-35 -28 -57 0l-127 172q-16 19 -37 0l-192 -172q-35 -30 -58 0l-8 11q-25 28 10 57zM999 1434q18 0 25 -1.5t13.5 -10.5t9.5 -29l196 -1295h66q23 0 30.5 -9t1.5 -32l-4 -16q-6 -24 -15 -32.5t-32 -8.5h-227 q-24 0 -32.5 9t-2.5 32l4 16q6 24 16 32.5t33 8.5h49l-43 283q-3 19 -9.5 24t-26.5 5h-529q-21 0 -30 -5t-19 -24l-156 -283h50q23 0 30.5 -9t1.5 -32l-4 -16q-6 -24 -15 -32.5t-32 -8.5h-225q-24 0 -32.5 9t-2.5 32l4 16q6 24 16 32.5t33 8.5h64l672 1237h-50 q-23 0 -30.5 9t-1.5 32l4 17q6 24 16 32.5t33 8.5h151zM963 1255q-2 10 -10.5 10.5t-14.5 -10.5l-385 -725q-11 -22 10 -22h484q21 0 18 22z" />
<glyph unicode="&#xe3;" horiz-adv-x="1413" d="M1137 1577q-34 0 -67.5 17t-56 37.5t-52 37.5t-56.5 17q-15 0 -29 -5t-23.5 -10t-23 -18.5t-18 -18.5t-18.5 -23t-15 -20q-18 -18 -35 -6l-36 25q-15 12 -2 30q53 73 101.5 105.5t111.5 32.5q34 0 67.5 -17t56.5 -37.5t52.5 -37.5t56.5 -17q17 0 32.5 5t30 18t22 20.5 t23.5 27t19 23.5q15 18 35 6l35 -24q17 -14 2 -31q-52 -72 -101 -104.5t-112 -32.5zM999 1434q18 0 25 -1.5t13.5 -10.5t9.5 -29l196 -1295h66q23 0 30.5 -9t1.5 -32l-4 -16q-6 -24 -15 -32.5t-32 -8.5h-227q-24 0 -32.5 9t-2.5 32l4 16q6 24 16 32.5t33 8.5h49l-43 283 q-3 19 -9.5 24t-26.5 5h-529q-21 0 -30 -5t-19 -24l-156 -283h50q23 0 30.5 -9t1.5 -32l-4 -16q-6 -24 -15 -32.5t-32 -8.5h-225q-24 0 -32.5 9t-2.5 32l4 16q6 24 16 32.5t33 8.5h64l672 1237h-50q-23 0 -30.5 9t-1.5 32l4 17q6 24 16 32.5t33 8.5h151zM963 1255 q-2 10 -10.5 10.5t-14.5 -10.5l-385 -725q-11 -22 10 -22h484q21 0 18 22z" />
<glyph unicode="&#xe4;" horiz-adv-x="1413" d="M1165 1649q24 -30 -12 -58q-33 -30 -57 0l-174 213q-24 31 10 58l12 10q35 28 57 0zM999 1434q18 0 25 -1.5t13.5 -10.5t9.5 -29l196 -1295h66q23 0 30.5 -9t1.5 -32l-4 -16q-6 -24 -15 -32.5t-32 -8.5h-227q-24 0 -32.5 9t-2.5 32l4 16q6 24 16 32.5t33 8.5h49l-43 283 q-3 19 -9.5 24t-26.5 5h-529q-21 0 -30 -5t-19 -24l-156 -283h50q23 0 30.5 -9t1.5 -32l-4 -16q-6 -24 -15 -32.5t-32 -8.5h-225q-24 0 -32.5 9t-2.5 32l4 16q6 24 16 32.5t33 8.5h64l672 1237h-50q-23 0 -30.5 9t-1.5 32l4 17q6 24 16 32.5t33 8.5h151zM963 1255 q-2 10 -10.5 10.5t-14.5 -10.5l-385 -725q-11 -22 10 -22h484q21 0 18 22z" />
<glyph unicode="&#xe5;" horiz-adv-x="1413" d="M1012 1577q-69 0 -110 50.5t-28 119.5q13 70 73.5 121t129.5 51q71 0 112 -51t28 -121q-14 -69 -74.5 -119.5t-130.5 -50.5zM952 1747q-7 -39 14 -65.5t60 -26.5q40 0 72 26t39 66q8 38 -14 65t-62 27q-38 0 -69.5 -27t-39.5 -65zM999 1434q18 0 25 -1.5t13.5 -10.5 t9.5 -29l196 -1295h66q23 0 30.5 -9t1.5 -32l-4 -16q-6 -24 -15 -32.5t-32 -8.5h-227q-24 0 -32.5 9t-2.5 32l4 16q6 24 16 32.5t33 8.5h49l-43 283q-3 19 -9.5 24t-26.5 5h-529q-21 0 -30 -5t-19 -24l-156 -283h50q23 0 30.5 -9t1.5 -32l-4 -16q-6 -24 -15 -32.5t-32 -8.5 h-225q-24 0 -32.5 9t-2.5 32l4 16q6 24 16 32.5t33 8.5h64l672 1237h-50q-23 0 -30.5 9t-1.5 32l4 17q6 24 16 32.5t33 8.5h151zM963 1255q-2 10 -10.5 10.5t-14.5 -10.5l-385 -725q-11 -22 10 -22h484q21 0 18 22z" />
<glyph unicode="&#xe6;" horiz-adv-x="1595" d="M844 139q-6 -31 -2 -36t35 -5h536l21 109q4 23 15 32t34 9h16q23 0 30.5 -9t2.5 -32l-33 -166q-5 -24 -14.5 -32.5t-32.5 -8.5h-704q-24 0 -31.5 9t-3.5 32l71 369h-266q-20 0 -28 -5.5t-17 -23.5l-156 -283h50q23 0 30.5 -9t1.5 -32l-4 -16q-6 -24 -15 -32.5t-32 -8.5 h-225q-24 0 -32.5 9t-2.5 32l4 16q6 24 16 32.5t33 8.5h64l672 1237h-50q-23 0 -30.5 9t-1.5 32l4 17q6 24 16 32.5t33 8.5h883q23 0 30 -9t2 -32l-32 -166q-4 -23 -15.5 -32t-34.5 -9h-16q-23 0 -30.5 9t-2.5 32l21 108h-537q-31 0 -37 -5t-12 -36l-86 -448q-6 -31 -2 -36 t35 -5h491q24 0 31.5 -9t1.5 -32l-4 -16q-6 -24 -15 -32.5t-32 -8.5h-492q-31 0 -37 -5t-12 -36zM553 530q-5 -12 -1 -17t13 -5h238l149 758q-8 0 -14 -11z" />
<glyph unicode="&#xe7;" horiz-adv-x="1304" d="M1460 1434q23 0 30.5 -9t2.5 -32l-33 -166q-4 -23 -15 -32t-34 -9h-16q-23 0 -30.5 9t-2.5 32l8 41q-37 20 -61.5 32t-88.5 27.5t-133 15.5q-170 0 -327.5 -84t-266 -227.5t-141.5 -314.5q-34 -171 19 -315t178 -228t295 -84q150 0 311 76l8 41q4 23 15 32t34 9h17 q23 0 30.5 -9t2.5 -32l-33 -166q-5 -24 -14.5 -32.5t-32.5 -8.5h-17q-24 0 -31.5 9t-3.5 32l3 14q-147 -63 -308 -63h-34l-56 -111q78 28 133 10.5t82 -66.5t15 -108q-10 -48 -36 -88.5t-62 -67t-76.5 -40.5t-82.5 -11t-77 23q-12 6 0 25l24 47q7 11 14 12.5t15 -2.5 q62 -23 116 6t66 94q9 40 -13 73.5t-73 33.5q-57 0 -106 -49q-7 -7 -8.5 -8t-8.5 -4t-12 1l-29 9q-16 4 -19 10t3 18l102 203q-248 45 -380 247.5t-80 467.5q37 196 166.5 363t315.5 264.5t382 97.5q154 0 285 -64l4 15q6 24 16 32.5t33 8.5h16z" />
<glyph unicode="&#xe8;" horiz-adv-x="1114" d="M1055 1651q23 -30 -13 -58q-33 -30 -57 0l-174 213q-24 31 10 58l13 10q35 28 57 0zM1249 1434q23 0 30.5 -9t2.5 -32l-33 -166q-4 -23 -15 -32t-34 -9h-16q-23 0 -30.5 9t-2.5 32l20 108h-536q-31 0 -37 -5t-12 -36l-86 -448q-6 -31 -2 -36t34 -5h492q24 0 31.5 -9 t1.5 -32l-4 -16q-6 -24 -15 -32.5t-32 -8.5h-492q-31 0 -37 -5t-12 -36l-103 -527q-6 -31 -2 -36t35 -5h537l20 109q4 23 15 32t34 9h17q23 0 30.5 -9t2.5 -32l-33 -166q-5 -24 -14.5 -32.5t-32.5 -8.5h-828q-24 0 -32 9t-2 32l4 16q6 24 16 32.5t33 8.5h80l241 1237h-82 q-23 0 -30.5 9t-1.5 32l4 17q6 24 16 32.5t33 8.5h827z" />
<glyph unicode="&#xe9;" horiz-adv-x="1114" d="M1071 1874q34 29 57 0l9 -10q23 -29 -11 -58l-260 -213q-32 -28 -57 0q-22 29 12 58zM1249 1434q23 0 30.5 -9t2.5 -32l-33 -166q-4 -23 -15 -32t-34 -9h-16q-23 0 -30.5 9t-2.5 32l20 108h-536q-31 0 -37 -5t-12 -36l-86 -448q-6 -31 -2 -36t34 -5h492q24 0 31.5 -9 t1.5 -32l-4 -16q-6 -24 -15 -32.5t-32 -8.5h-492q-31 0 -37 -5t-12 -36l-103 -527q-6 -31 -2 -36t35 -5h537l20 109q4 23 15 32t34 9h17q23 0 30.5 -9t2.5 -32l-33 -166q-5 -24 -14.5 -32.5t-32.5 -8.5h-828q-24 0 -32 9t-2 32l4 16q6 24 16 32.5t33 8.5h80l241 1237h-82 q-23 0 -30.5 9t-1.5 32l4 17q6 24 16 32.5t33 8.5h827z" />
<glyph unicode="&#xea;" horiz-adv-x="1114" d="M952 1874q36 28 58 0l176 -213q22 -28 -10 -57l-13 -11q-35 -28 -57 0l-127 172q-16 19 -37 0l-192 -172q-35 -30 -58 0l-8 11q-25 28 10 57zM1249 1434q23 0 30.5 -9t2.5 -32l-33 -166q-4 -23 -15 -32t-34 -9h-16q-23 0 -30.5 9t-2.5 32l20 108h-536q-31 0 -37 -5 t-12 -36l-86 -448q-6 -31 -2 -36t34 -5h492q24 0 31.5 -9t1.5 -32l-4 -16q-6 -24 -15 -32.5t-32 -8.5h-492q-31 0 -37 -5t-12 -36l-103 -527q-6 -31 -2 -36t35 -5h537l20 109q4 23 15 32t34 9h17q23 0 30.5 -9t2.5 -32l-33 -166q-5 -24 -14.5 -32.5t-32.5 -8.5h-828 q-24 0 -32 9t-2 32l4 16q6 24 16 32.5t33 8.5h80l241 1237h-82q-23 0 -30.5 9t-1.5 32l4 17q6 24 16 32.5t33 8.5h827z" />
<glyph unicode="&#xeb;" horiz-adv-x="1114" d="M717 1663q8 35 38.5 60.5t65.5 25.5t55 -25.5t13 -60.5q-6 -35 -37 -60.5t-66 -25.5t-55 25.5t-14 60.5zM985 1663q7 35 38.5 60.5t66.5 25.5t55 -25.5t12 -60.5q-6 -35 -36.5 -60.5t-65.5 -25.5t-55.5 25.5t-14.5 60.5zM1249 1434q23 0 30.5 -9t2.5 -32l-33 -166 q-4 -23 -15 -32t-34 -9h-16q-23 0 -30.5 9t-2.5 32l20 108h-536q-31 0 -37 -5t-12 -36l-86 -448q-6 -31 -2 -36t34 -5h492q24 0 31.5 -9t1.5 -32l-4 -16q-6 -24 -15 -32.5t-32 -8.5h-492q-31 0 -37 -5t-12 -36l-103 -527q-6 -31 -2 -36t35 -5h537l20 109q4 23 15 32t34 9h17 q23 0 30.5 -9t2.5 -32l-33 -166q-5 -24 -14.5 -32.5t-32.5 -8.5h-828q-24 0 -32 9t-2 32l4 16q6 24 16 32.5t33 8.5h80l241 1237h-82q-23 0 -30.5 9t-1.5 32l4 17q6 24 16 32.5t33 8.5h827z" />
<glyph unicode="&#xec;" horiz-adv-x="561" d="M737 1649q24 -30 -12 -58q-33 -30 -57 0l-174 213q-24 31 10 58l12 10q35 28 57 0zM373 1393q6 24 16 32.5t33 8.5h274q24 0 31.5 -9t1.5 -32l-4 -17q-6 -24 -16 -32.5t-33 -8.5h-82l-242 -1237h84q24 0 31.5 -9t1.5 -32l-4 -16q-6 -24 -15 -32.5t-32 -8.5h-275 q-24 0 -32 9t-2 32l4 16q6 24 16 32.5t33 8.5h80l241 1237h-82q-23 0 -30.5 9t-1.5 32z" />
<glyph unicode="&#xed;" horiz-adv-x="561" d="M713 1872q34 29 57 0l8 -10q23 -30 -10 -58l-260 -213q-32 -28 -57 0q-22 29 12 58zM373 1393q6 24 16 32.5t33 8.5h274q24 0 31.5 -9t1.5 -32l-4 -17q-6 -24 -16 -32.5t-33 -8.5h-82l-242 -1237h84q24 0 31.5 -9t1.5 -32l-4 -16q-6 -24 -15 -32.5t-32 -8.5h-275 q-24 0 -32 9t-2 32l4 16q6 24 16 32.5t33 8.5h80l241 1237h-82q-23 0 -30.5 9t-1.5 32z" />
<glyph unicode="&#xee;" horiz-adv-x="561" d="M614 1872q36 28 58 0l176 -213q22 -28 -10 -57l-13 -11q-35 -28 -57 0l-127 172q-16 19 -37 0l-192 -172q-35 -30 -58 0l-8 11q-25 28 10 57zM373 1393q6 24 16 32.5t33 8.5h274q24 0 31.5 -9t1.5 -32l-4 -17q-6 -24 -16 -32.5t-33 -8.5h-82l-242 -1237h84q24 0 31.5 -9 t1.5 -32l-4 -16q-6 -24 -15 -32.5t-32 -8.5h-275q-24 0 -32 9t-2 32l4 16q6 24 16 32.5t33 8.5h80l241 1237h-82q-23 0 -30.5 9t-1.5 32z" />
<glyph unicode="&#xef;" horiz-adv-x="561" d="M379 1663q8 35 38.5 60.5t65.5 25.5t55 -25.5t13 -60.5q-6 -35 -36.5 -60.5t-65.5 -25.5t-55.5 25.5t-14.5 60.5zM647 1663q7 35 38.5 60.5t66.5 25.5t55 -25.5t12 -60.5q-6 -35 -36.5 -60.5t-65.5 -25.5t-55.5 25.5t-14.5 60.5zM373 1393q6 24 16 32.5t33 8.5h274 q24 0 31.5 -9t1.5 -32l-4 -17q-6 -24 -16 -32.5t-33 -8.5h-82l-242 -1237h84q24 0 31.5 -9t1.5 -32l-4 -16q-6 -24 -15 -32.5t-32 -8.5h-275q-24 0 -32 9t-2 32l4 16q6 24 16 32.5t33 8.5h80l241 1237h-82q-23 0 -30.5 9t-1.5 32z" />
<glyph unicode="&#xf0;" horiz-adv-x="1488" d="M463 1118l41 217h-82q-24 0 -31.5 9t-1.5 32l4 17q6 24 16 32.5t33 8.5h506q150 0 271.5 -50t200 -143t109 -225.5t-2.5 -298.5q-42 -216 -170 -380.5t-306.5 -250.5t-379.5 -86h-506q-24 0 -32.5 9t-2.5 32l4 16q6 24 16 32.5t33 8.5h80l158 807q3 12 -1 16.5t-16 4.5 h-81q-24 0 -31.5 9t-1.5 32l4 16q6 24 16 32.5t33 8.5h82q22 0 25 20zM383 139q-6 -31 -2 -36t35 -5h272q176 0 327.5 74.5t257 216t142.5 328.5q36 187 -14.5 328t-173 215.5t-299.5 74.5h-273q-31 0 -37 -5t-12 -36l-47 -250q-1 -10 4.5 -15t16.5 -5h176q23 0 30.5 -9 t1.5 -32l-4 -16q-6 -24 -16 -32.5t-33 -8.5h-178q-13 0 -18.5 -4t-8.5 -17z" />
<glyph unicode="&#xf1;" horiz-adv-x="1468" d="M1163 1577q-34 0 -67.5 17t-55.5 37.5t-51.5 37.5t-56.5 17q-15 0 -29 -5t-23.5 -10t-23 -18.5t-18 -18.5t-18.5 -23t-15 -20q-18 -18 -35 -6l-37 25q-15 12 -2 30q53 73 101.5 105.5t111.5 32.5q34 0 68 -17t56.5 -37.5t52.5 -37.5t57 -17q17 0 32.5 5t30 18t22 20.5 t23.5 27t19 23.5q14 17 34 6l35 -24q17 -14 2 -31q-52 -72 -101 -104.5t-112 -32.5zM113 57q6 24 16 32.5t33 8.5h80l241 1237h-82q-23 0 -30.5 9t-1.5 32l4 17q6 24 16 32.5t33 8.5h143q9 0 14 -1t8.5 -5t5 -7t5.5 -12l561 -1153q5 -10 13 -8.5t10 12.5l209 1075h-82 q-24 0 -31.5 9t-1.5 32l4 17q6 24 16 32.5t33 8.5h275q23 0 30.5 -9t1.5 -32l-4 -17q-6 -24 -16 -32.5t-33 -8.5h-82l-252 -1294q-5 -24 -14.5 -32.5t-32.5 -8.5h-20q-16 0 -22 5t-13 20l-561 1153q-5 10 -13 8.5t-10 -12.5l-211 -1076h84q24 0 31.5 -9t1.5 -32l-4 -16 q-6 -24 -15 -32.5t-32 -8.5h-275q-24 0 -32 9t-2 32z" />
<glyph unicode="&#xf2;" d="M1284 1651q24 -30 -12 -58q-34 -31 -58 0l-174 213q-24 31 11 58l12 10q35 28 57 0zM242 717q28 148 107 281t191.5 231t260 155.5t305.5 57.5q196 0 344.5 -97.5t213.5 -264.5t28 -363q-29 -148 -108.5 -281t-192.5 -231t-260.5 -155.5t-305.5 -57.5q-196 0 -344 97.5 t-212.5 264.5t-26.5 363zM352 717q-34 -171 19 -315t178 -228t295 -84q127 0 251 49.5t222 134t168.5 200t95.5 243.5q33 171 -20.5 314.5t-178.5 227.5t-295 84t-327.5 -84t-266 -227.5t-141.5 -314.5z" />
<glyph unicode="&#xf3;" d="M1311 1874q34 29 57 0l8 -10q23 -30 -10 -58l-260 -213q-32 -28 -57 0q-22 29 12 58zM242 717q28 148 107 281t191.5 231t260 155.5t305.5 57.5q196 0 344.5 -97.5t213.5 -264.5t28 -363q-29 -148 -108.5 -281t-192.5 -231t-260.5 -155.5t-305.5 -57.5q-196 0 -344 97.5 t-212.5 264.5t-26.5 363zM352 717q-34 -171 19 -315t178 -228t295 -84q127 0 251 49.5t222 134t168.5 200t95.5 243.5q33 171 -20.5 314.5t-178.5 227.5t-295 84t-327.5 -84t-266 -227.5t-141.5 -314.5z" />
<glyph unicode="&#xf4;" d="M1159 1872q36 28 58 0l176 -213q22 -28 -11 -57l-12 -11q-35 -28 -57 0l-127 172q-16 19 -37 0l-193 -172q-34 -29 -57 0l-8 11q-25 28 10 57zM242 717q28 148 107 281t191.5 231t260 155.5t305.5 57.5q196 0 344.5 -97.5t213.5 -264.5t28 -363q-29 -148 -108.5 -281 t-192.5 -231t-260.5 -155.5t-305.5 -57.5q-196 0 -344 97.5t-212.5 264.5t-26.5 363zM352 717q-34 -171 19 -315t178 -228t295 -84q127 0 251 49.5t222 134t168.5 200t95.5 243.5q33 171 -20.5 314.5t-178.5 227.5t-295 84t-327.5 -84t-266 -227.5t-141.5 -314.5z" />
<glyph unicode="&#xf5;" d="M1257 1579q-34 0 -66.5 16.5t-54.5 37t-51.5 37t-56.5 16.5q-14 0 -28 -5t-23 -10t-22.5 -18.5t-18 -19t-18 -23t-15.5 -19.5q-16 -16 -35 -6l-37 25q-15 12 -2 30q52 73 101 105.5t110 32.5q34 0 68 -17t56.5 -37.5t52 -37.5t55.5 -17q17 0 32.5 5t30 18t22 20.5 t23.5 27t19 23.5q14 17 33 6l34 -24q17 -14 2 -31q-50 -72 -98.5 -103.5t-112.5 -31.5zM242 717q28 148 107 281t191.5 231t260 155.5t305.5 57.5q196 0 344.5 -97.5t213.5 -264.5t28 -363q-29 -148 -108.5 -281t-192.5 -231t-260.5 -155.5t-305.5 -57.5q-196 0 -344 97.5 t-212.5 264.5t-26.5 363zM352 717q-34 -171 19 -315t178 -228t295 -84q127 0 251 49.5t222 134t168.5 200t95.5 243.5q33 171 -20.5 314.5t-178.5 227.5t-295 84t-327.5 -84t-266 -227.5t-141.5 -314.5z" />
<glyph unicode="&#xf6;" d="M926 1663q8 35 38.5 60.5t65.5 25.5t55 -25.5t13 -60.5q-6 -35 -37 -60.5t-66 -25.5t-55 25.5t-14 60.5zM1194 1663q8 35 38.5 60.5t65.5 25.5t55 -25.5t13 -60.5q-6 -35 -36.5 -60.5t-65.5 -25.5t-55.5 25.5t-14.5 60.5zM242 717q28 148 107 281t191.5 231t260 155.5 t305.5 57.5q196 0 344.5 -97.5t213.5 -264.5t28 -363q-29 -148 -108.5 -281t-192.5 -231t-260.5 -155.5t-305.5 -57.5q-196 0 -344 97.5t-212.5 264.5t-26.5 363zM352 717q-34 -171 19 -315t178 -228t295 -84q127 0 251 49.5t222 134t168.5 200t95.5 243.5 q33 171 -20.5 314.5t-178.5 227.5t-295 84t-327.5 -84t-266 -227.5t-141.5 -314.5z" />
<glyph unicode="&#xf7;" horiz-adv-x="901" d="M559 1053q8 40 40.5 68t72.5 28t62.5 -28t15.5 -68t-41 -67.5t-74 -27.5t-62 27.5t-14 67.5zM250 764q8 25 17 33t32 8h614q24 0 31.5 -9t1.5 -32l-4 -16q-6 -24 -15 -32.5t-32 -8.5h-614q-24 0 -32.5 9t-2.5 32zM446 467q8 40 40.5 68t72.5 28t62.5 -28t15.5 -68 q-7 -39 -41 -66.5t-74 -27.5t-62 27t-14 67z" />
<glyph unicode="&#xf8;" d="M242 717q28 148 107 281t191.5 231t260 155.5t305.5 57.5q178 0 324 -84l24 31q29 34 39 39.5t41 5.5h20q16 0 20 -11t-9 -30l-68 -84q122 -100 175 -256t20 -336q-29 -148 -108.5 -281t-192.5 -231t-260.5 -155.5t-305.5 -57.5q-179 0 -325 84l-25 -31 q-26 -34 -36 -39.5t-42 -5.5h-20q-16 0 -20.5 11t8.5 30l67 84q-122 100 -173.5 256t-16.5 336zM352 717q-30 -155 10 -287.5t140 -218.5l858 1061q-120 71 -273 71q-170 0 -327.5 -84t-266 -227.5t-141.5 -314.5zM1581 717q29 153 -12.5 286.5t-141.5 219.5l-858 -1061 q116 -72 275 -72q127 0 251 49.5t222 134t168.5 200t95.5 243.5z" />
<glyph unicode="&#xf9;" horiz-adv-x="1466" d="M1036 1872q35 30 58 0l8 -10q23 -30 -10 -58l-261 -213q-32 -28 -57 0q-22 29 12 58zM1376 1872q35 30 58 0l8 -10q23 -30 -10 -58l-261 -213q-32 -28 -57 0q-22 29 12 58zM1278 1393q6 24 16 32.5t33 8.5h275q23 0 30.5 -9t1.5 -32l-4 -17q-6 -24 -16 -32.5t-33 -8.5 h-82l-158 -811q-34 -173 -127.5 -297.5t-218 -182t-264.5 -52.5q-106 4 -189.5 37t-142.5 98.5t-78 164t5 232.5l157 811h-82q-23 0 -30.5 9t-1.5 32l4 17q6 24 16 32.5t33 8.5h274q24 0 31.5 -9t1.5 -32l-4 -17q-6 -24 -16 -32.5t-33 -8.5h-82l-160 -823 q-20 -109 -5 -188.5t61.5 -131.5t112 -77t147.5 -25q171 0 304.5 107.5t174.5 314.5l160 823h-82q-24 0 -31.5 9t-1.5 32z" />
<glyph unicode="&#xfa;" horiz-adv-x="1466" d="M1206 1872q35 30 58 0l8 -10q23 -30 -10 -58l-261 -213q-32 -28 -57 0q-22 29 12 58zM1278 1393q6 24 16 32.5t33 8.5h275q23 0 30.5 -9t1.5 -32l-4 -17q-6 -24 -16 -32.5t-33 -8.5h-82l-158 -811q-34 -173 -127.5 -297.5t-218 -182t-264.5 -52.5q-106 4 -189.5 37 t-142.5 98.5t-78 164t5 232.5l157 811h-82q-23 0 -30.5 9t-1.5 32l4 17q6 24 16 32.5t33 8.5h274q24 0 31.5 -9t1.5 -32l-4 -17q-6 -24 -16 -32.5t-33 -8.5h-82l-160 -823q-20 -109 -5 -188.5t61.5 -131.5t112 -77t147.5 -25q171 0 304.5 107.5t174.5 314.5l160 823h-82 q-24 0 -31.5 9t-1.5 32z" />
<glyph unicode="&#xfb;" horiz-adv-x="1466" d="M1067 1874q35 28 57 0l176 -213q22 -28 -10 -57l-12 -11q-35 -28 -57 0l-127 172q-16 19 -37 0l-193 -172q-34 -29 -57 0l-8 11q-25 28 10 57zM1278 1393q6 24 16 32.5t33 8.5h275q23 0 30.5 -9t1.5 -32l-4 -17q-6 -24 -16 -32.5t-33 -8.5h-82l-158 -811 q-34 -173 -127.5 -297.5t-218 -182t-264.5 -52.5q-106 4 -189.5 37t-142.5 98.5t-78 164t5 232.5l157 811h-82q-23 0 -30.5 9t-1.5 32l4 17q6 24 16 32.5t33 8.5h274q24 0 31.5 -9t1.5 -32l-4 -17q-6 -24 -16 -32.5t-33 -8.5h-82l-160 -823q-20 -109 -5 -188.5t61.5 -131.5 t112 -77t147.5 -25q171 0 304.5 107.5t174.5 314.5l160 823h-82q-24 0 -31.5 9t-1.5 32z" />
<glyph unicode="&#xfc;" horiz-adv-x="1466" d="M831 1663q7 35 38.5 60.5t66.5 25.5t55 -25.5t13 -60.5q-6 -35 -37 -60.5t-66 -25.5t-55.5 25.5t-14.5 60.5zM1100 1663q8 35 38.5 60.5t65.5 25.5t55 -25.5t13 -60.5q-6 -35 -37 -60.5t-66 -25.5t-55 25.5t-14 60.5zM1278 1393q6 24 16 32.5t33 8.5h275q23 0 30.5 -9 t1.5 -32l-4 -17q-6 -24 -16 -32.5t-33 -8.5h-82l-158 -811q-34 -173 -127.5 -297.5t-218 -182t-264.5 -52.5q-106 4 -189.5 37t-142.5 98.5t-78 164t5 232.5l157 811h-82q-23 0 -30.5 9t-1.5 32l4 17q6 24 16 32.5t33 8.5h274q24 0 31.5 -9t1.5 -32l-4 -17q-6 -24 -16 -32.5 t-33 -8.5h-82l-160 -823q-20 -109 -5 -188.5t61.5 -131.5t112 -77t147.5 -25q171 0 304.5 107.5t174.5 314.5l160 823h-82q-24 0 -31.5 9t-1.5 32z" />
<glyph unicode="&#xfd;" horiz-adv-x="1277" d="M1112 1872q34 29 57 0l9 -10q23 -29 -11 -58l-260 -213q-32 -28 -57 0q-22 29 12 58zM512 1434q24 0 31 -4t14 -25l225 -567q3 -8 11 -8t14 8l442 567q17 21 25.5 25t32.5 4h127q23 0 30.5 -9t1.5 -32l-4 -17q-6 -24 -16 -32.5t-33 -8.5h-84l-500 -630l-118 -607h84 q23 0 30.5 -9t1.5 -32l-4 -16q-6 -24 -15 -32.5t-32 -8.5h-274q-24 0 -32.5 9t-2.5 32l4 16q6 24 16 32.5t33 8.5h80l119 607l-252 630h-86q-24 0 -31.5 9t-1.5 32l4 17q6 24 16 32.5t33 8.5h111z" />
<glyph unicode="&#xfe;" horiz-adv-x="1163" d="M373 1393q6 24 16 32.5t33 8.5h274q24 0 31.5 -9t1.5 -32l-4 -17q-6 -24 -16 -32.5t-33 -8.5h-82l-25 -125q-6 -31 -2 -36t35 -5h219q96 0 171.5 -23t123.5 -64t78 -98t34 -125t-9 -144q-19 -96 -65.5 -177.5t-117.5 -144t-171.5 -98t-219.5 -35.5h-219q-31 0 -37 -5 t-12 -36l-25 -121h84q24 0 31.5 -9t1.5 -32l-4 -16q-6 -24 -15 -32.5t-32 -8.5h-275q-24 0 -32 9t-2 32l4 16q6 24 16 32.5t33 8.5h80l241 1237h-82q-23 0 -30.5 9t-1.5 32zM584 1071q-31 0 -37 -5t-12 -36l-123 -631q-5 -31 -0.5 -36t34.5 -5h213q196 0 310 98t145 259 q17 75 5.5 140t-46.5 113t-105.5 75.5t-170.5 27.5h-213z" />
<glyph unicode="&#xff;" horiz-adv-x="1277" d="M737 1663q7 35 38.5 60.5t66.5 25.5t55 -25.5t12 -60.5q-6 -35 -36.5 -60.5t-65.5 -25.5t-55.5 25.5t-14.5 60.5zM1006 1663q8 35 38.5 60.5t65.5 25.5t55 -25.5t13 -60.5q-6 -35 -37 -60.5t-66 -25.5t-55 25.5t-14 60.5zM512 1434q24 0 31 -4t14 -25l225 -567 q3 -8 11 -8t14 8l442 567q17 21 25.5 25t32.5 4h127q23 0 30.5 -9t1.5 -32l-4 -17q-6 -24 -16 -32.5t-33 -8.5h-84l-500 -630l-118 -607h84q23 0 30.5 -9t1.5 -32l-4 -16q-6 -24 -15 -32.5t-32 -8.5h-274q-24 0 -32.5 9t-2.5 32l4 16q6 24 16 32.5t33 8.5h80l119 607 l-252 630h-86q-24 0 -31.5 9t-1.5 32l4 17q6 24 16 32.5t33 8.5h111z" />
<glyph unicode="&#x152;" horiz-adv-x="2332" d="M242 717q28 148 107 281t191.5 231t260 155.5t305.5 57.5q190 0 336 -93t213 -249l59 293q4 23 15 32t34 9h705q23 0 30.5 -9t2.5 -32l-33 -166q-4 -23 -15 -32t-34 -9h-17q-23 0 -30 9t-2 32l20 108h-537q-31 0 -37 -5t-12 -36l-86 -448q-6 -31 -2 -36t35 -5h492 q23 0 30.5 -9t1.5 -32l-4 -16q-6 -24 -15 -32.5t-32 -8.5h-491q-31 0 -37.5 -5t-12.5 -36l-102 -527q-6 -31 -2 -36t35 -5h536l21 109q4 23 15 32t34 9h16q23 0 30.5 -9t2.5 -32l-33 -166q-5 -24 -14.5 -32.5t-32.5 -8.5h-704q-24 0 -31.5 9t-3.5 32l55 293 q-277 -342 -680 -342q-196 0 -344 97.5t-212.5 264.5t-26.5 363zM352 717q-34 -171 19 -315t178 -228t295 -84q166 0 321.5 79.5t265 217.5t144.5 303q32 139 6.5 258.5t-90.5 207t-170.5 137.5t-233.5 50q-170 0 -327.5 -84t-266 -227.5t-141.5 -314.5z" />
<glyph unicode="&#x153;" horiz-adv-x="2332" d="M242 717q28 148 107 281t191.5 231t260 155.5t305.5 57.5q190 0 336 -93t213 -249l59 293q4 23 15 32t34 9h705q23 0 30.5 -9t2.5 -32l-33 -166q-4 -23 -15 -32t-34 -9h-17q-23 0 -30 9t-2 32l20 108h-537q-31 0 -37 -5t-12 -36l-86 -448q-6 -31 -2 -36t35 -5h492 q23 0 30.5 -9t1.5 -32l-4 -16q-6 -24 -15 -32.5t-32 -8.5h-491q-31 0 -37.5 -5t-12.5 -36l-102 -527q-6 -31 -2 -36t35 -5h536l21 109q4 23 15 32t34 9h16q23 0 30.5 -9t2.5 -32l-33 -166q-5 -24 -14.5 -32.5t-32.5 -8.5h-704q-24 0 -31.5 9t-3.5 32l55 293 q-277 -342 -680 -342q-196 0 -344 97.5t-212.5 264.5t-26.5 363zM352 717q-34 -171 19 -315t178 -228t295 -84q166 0 321.5 79.5t265 217.5t144.5 303q32 139 6.5 258.5t-90.5 207t-170.5 137.5t-233.5 50q-170 0 -327.5 -84t-266 -227.5t-141.5 -314.5z" />
<glyph unicode="&#x178;" horiz-adv-x="1277" d="M737 1663q7 35 38.5 60.5t66.5 25.5t55 -25.5t12 -60.5q-6 -35 -36.5 -60.5t-65.5 -25.5t-55.5 25.5t-14.5 60.5zM1006 1663q8 35 38.5 60.5t65.5 25.5t55 -25.5t13 -60.5q-6 -35 -37 -60.5t-66 -25.5t-55 25.5t-14 60.5zM512 1434q24 0 31 -4t14 -25l225 -567 q3 -8 11 -8t14 8l442 567q17 21 25.5 25t32.5 4h127q23 0 30.5 -9t1.5 -32l-4 -17q-6 -24 -16 -32.5t-33 -8.5h-84l-500 -630l-118 -607h84q23 0 30.5 -9t1.5 -32l-4 -16q-6 -24 -15 -32.5t-32 -8.5h-274q-24 0 -32.5 9t-2.5 32l4 16q6 24 16 32.5t33 8.5h80l119 607 l-252 630h-86q-24 0 -31.5 9t-1.5 32l4 17q6 24 16 32.5t33 8.5h111z" />
<glyph unicode="&#x2c6;" horiz-adv-x="630" d="M641 1831q35 28 57 0l176 -213q22 -28 -10 -57l-12 -11q-35 -28 -57 0l-127 172q-9 10 -17 10t-20 -10l-193 -172q-34 -29 -57 0l-8 11q-25 28 10 57z" />
<glyph unicode="&#x2dc;" horiz-adv-x="684" d="M768 1536q-34 0 -67.5 17t-55.5 37.5t-51.5 37.5t-56.5 17q-15 0 -29 -5t-23.5 -10t-23 -18.5t-18 -18.5t-18.5 -23t-15 -20q-18 -18 -35 -6l-37 25q-15 12 -2 30q53 73 101.5 105.5t111.5 32.5q34 0 67.5 -17t56.5 -37.5t52.5 -37.5t56.5 -17q17 0 32.5 5t30 18t22 20.5 t23.5 27t19 23.5q15 18 35 7l35 -25q17 -14 2 -31q-52 -72 -101 -104.5t-112 -32.5z" />
<glyph unicode="&#x2000;" horiz-adv-x="959" />
<glyph unicode="&#x2001;" horiz-adv-x="1919" />
<glyph unicode="&#x2002;" horiz-adv-x="959" />
<glyph unicode="&#x2003;" horiz-adv-x="1919" />
<glyph unicode="&#x2004;" horiz-adv-x="639" />
<glyph unicode="&#x2005;" horiz-adv-x="479" />
<glyph unicode="&#x2006;" horiz-adv-x="319" />
<glyph unicode="&#x2007;" horiz-adv-x="319" />
<glyph unicode="&#x2008;" horiz-adv-x="239" />
<glyph unicode="&#x2009;" horiz-adv-x="383" />
<glyph unicode="&#x200a;" horiz-adv-x="106" />
<glyph unicode="&#x2010;" horiz-adv-x="700" d="M190 516q-35 0 -24 41l4 16q6 25 12.5 33t20.5 8h440q36 0 25 -41l-4 -16q-6 -25 -12.5 -33t-20.5 -8h-441z" />
<glyph unicode="&#x2011;" horiz-adv-x="700" d="M190 516q-35 0 -24 41l4 16q6 25 12.5 33t20.5 8h440q36 0 25 -41l-4 -16q-6 -25 -12.5 -33t-20.5 -8h-441z" />
<glyph unicode="&#x2012;" horiz-adv-x="700" d="M190 516q-35 0 -24 41l4 16q6 25 12.5 33t20.5 8h440q36 0 25 -41l-4 -16q-6 -25 -12.5 -33t-20.5 -8h-441z" />
<glyph unicode="&#x2013;" horiz-adv-x="1165" d="M213 571q6 24 16 32.5t33 8.5h879q24 0 31.5 -9t1.5 -32l-5 -16q-6 -24 -16 -32.5t-33 -8.5h-878q-24 0 -31.5 9t-1.5 32z" />
<glyph unicode="&#x2014;" horiz-adv-x="1431" d="M213 571q6 24 16 32.5t33 8.5h1145q24 0 31.5 -9t1.5 -32l-4 -16q-6 -24 -16.5 -32.5t-33.5 -8.5h-1144q-24 0 -31.5 9t-1.5 32z" />
<glyph unicode="&#x2018;" horiz-adv-x="419" d="M500 1393q36 -5 54.5 -30t12.5 -63t-37 -67.5t-75 -30.5q-60 -2 -85.5 40.5t-13.5 110.5t54 144q55 102 135 182q22 22 33.5 23t23.5 -12q14 -14 14.5 -22t-16.5 -28q-92 -94 -122 -173q-25 -68 22 -74z" />
<glyph unicode="&#x2019;" horiz-adv-x="419" d="M432 1251q-36 5 -54.5 29.5t-12.5 62.5q5 37 36.5 67.5t75.5 31.5q60 2 85.5 -40.5t14 -111t-54.5 -143.5q-55 -102 -135 -182q-22 -22 -33.5 -23t-23.5 12q-14 14 -14.5 22t16.5 28q93 97 122 175q24 66 -22 72z" />
<glyph unicode="&#x201a;" horiz-adv-x="419" d="M188 -8q-37 5 -56 29.5t-13 62.5q5 37 37.5 67t76.5 31q59 2 84.5 -40.5t14.5 -111t-53 -143.5q-58 -102 -136 -182q-22 -22 -34.5 -23t-22.5 13q-15 13 -15.5 21t15.5 28q92 94 123 173q26 69 -21 75z" />
<glyph unicode="&#x201c;" horiz-adv-x="716" d="M500 1393q36 -5 54.5 -30t12.5 -63t-37 -67.5t-75 -30.5q-60 -2 -85.5 40.5t-13.5 110.5t54 144q55 102 135 182q22 22 33.5 23t23.5 -12q14 -14 14.5 -22t-16.5 -28q-92 -94 -122 -173q-25 -68 22 -74zM797 1393q36 -5 54.5 -30t12.5 -63t-37 -67.5t-75 -30.5 q-60 -2 -85.5 40.5t-13.5 110.5t54 144q55 102 135 182q22 22 33.5 23t23.5 -12q14 -14 14.5 -22t-16.5 -28q-92 -94 -122 -173q-25 -68 22 -74z" />
<glyph unicode="&#x201d;" horiz-adv-x="716" d="M432 1251q-36 5 -54.5 29.5t-12.5 62.5q5 37 36.5 67.5t75.5 31.5q60 2 85.5 -40.5t13.5 -110.5t-54 -144q-55 -102 -135 -182q-22 -22 -33.5 -23t-23.5 12q-14 14 -14.5 22t16.5 28q93 97 122 175q24 66 -22 72zM729 1251q-36 5 -54.5 29.5t-12.5 62.5q5 37 36.5 67.5 t75.5 31.5q60 2 85.5 -40.5t13.5 -110.5t-54 -144q-55 -102 -135 -182q-22 -22 -33.5 -23t-23.5 12q-14 14 -14.5 22t16.5 28q93 97 122 175q24 66 -22 72z" />
<glyph unicode="&#x201e;" horiz-adv-x="716" d="M188 -8q-37 5 -56 29.5t-13 62.5q5 37 37.5 67t76.5 31q59 2 84.5 -40.5t14.5 -111t-53 -143.5q-58 -102 -136 -182q-22 -22 -34.5 -23t-22.5 13q-15 13 -15.5 21t15.5 28q92 94 123 173q26 69 -21 75zM485 -8q-37 5 -56 29.5t-13 62.5q5 37 37.5 67t76.5 31 q59 2 84.5 -40.5t14 -111t-53.5 -143.5q-60 -104 -135 -182q-22 -22 -34.5 -23t-22.5 13q-15 13 -15.5 21t15.5 28q92 94 123 173q26 69 -21 75z" />
<glyph unicode="&#x2022;" horiz-adv-x="518" d="M248 752q12 66 66 111.5t120 45.5t102.5 -45.5t24.5 -111.5q-13 -66 -67.5 -111t-120.5 -45t-101.5 45t-23.5 111z" />
<glyph unicode="&#x2026;" horiz-adv-x="1185" d="M119 86q8 40 40 68t72 28t62.5 -28t15.5 -68t-40.5 -67t-73.5 -27t-62 27t-14 67zM514 86q8 40 40.5 68t72.5 28t62.5 -28t15.5 -68q-7 -39 -41 -66.5t-74 -27.5t-62 27t-14 67zM909 86q8 40 40.5 68t72.5 28t62.5 -28t15.5 -68q-7 -39 -41 -66.5t-74 -27.5t-62 27 t-14 67z" />
<glyph unicode="&#x202f;" horiz-adv-x="383" />
<glyph unicode="&#x2039;" horiz-adv-x="612" d="M209 489q-19 22 8 46l426 348q17 12 27.5 7t7.5 -20l-16 -84q0 -1 -1 -5.5t-1.5 -5.5t-1.5 -4.5t-1.5 -5t-2 -4.5t-3.5 -5t-4.5 -5t-6 -6t-7.5 -6l-262 -215q-14 -11 -4 -24l178 -215q11 -14 12.5 -24.5t-2.5 -22.5l-16 -84q-3 -15 -15.5 -20t-23.5 7z" />
<glyph unicode="&#x203a;" horiz-adv-x="612" d="M166 141q-17 -14 -27.5 -9t-7.5 20l16 86q2 11 4 16t8.5 13t18.5 18l271 215q14 11 4 24l-187 215q-18 22 -12 47l16 86q3 15 15.5 20t23.5 -9l291 -348q19 -22 -8 -46z" />
<glyph unicode="&#x205f;" horiz-adv-x="479" />
<glyph unicode="&#x20ac;" horiz-adv-x="1302" d="M350 752q3 12 -0.5 16t-15.5 4h-82q-23 0 -30.5 9t-2.5 32l2 12q4 23 15 32t34 9h82q20 0 23 19q12 60 42.5 128.5t88 146t132 139t184.5 102.5t235 41q246 0 375 -160q25 -28 -11 -57l-18 -15q-21 -16 -32 -16.5t-25 16.5q-107 133 -308 133q-106 0 -196.5 -35t-149 -86 t-104 -116.5t-67.5 -119t-32 -101.5q-3 -19 19 -19h399q23 0 30.5 -9t2.5 -32l-2 -12q-4 -23 -15 -32t-34 -9h-400q-12 0 -16.5 -4t-7.5 -16l-14 -70q-3 -12 0.5 -16t15.5 -4h399q23 0 30.5 -9t2.5 -32l-2 -13q-4 -23 -15 -32t-34 -9h-399q-12 0 -16.5 -3.5t-6.5 -14.5 q-7 -39 -7 -83t8.5 -97.5t34.5 -101.5t66.5 -88.5t109 -64.5t157.5 -24q200 0 360 133q21 18 33 18t24 -18l11 -14q23 -32 -11 -57q-189 -160 -436 -160q-80 0 -147 16.5t-114.5 45t-85.5 66.5t-61 82.5t-38 90t-20.5 92.5t-5 87.5t6.5 76.5q3 18 -18 18h-82q-23 0 -30.5 9 t-2.5 32l2 13q4 23 15 32t34 9h82q12 0 17 4t8 16z" />
<glyph unicode="&#x2122;" horiz-adv-x="1255" d="M385 852q-19 0 -16 18l2 13q3 18 24 18h23l90 461q2 7 1 10t-3 3.5t-10 0.5h-88l-9 -39q-3 -20 -22 -20h-12q-18 0 -15 20l17 80q3 17 20 17h332q15 0 12 -17l-16 -80q-3 -20 -23 -20h-10q-21 0 -16 20l8 39h-84q-12 0 -16 -2.5t-5 -11.5l-90 -461h23q19 0 16 -18l-2 -13 q-3 -18 -24 -18h-107zM1001 852q-12 0 -14 12l-82 406q-1 3 -3 4t-4 -0.5t-3 -5.5l-102 -367h22q19 0 16 -18l-2 -13q-3 -18 -24 -18h-107q-19 0 -16 18l2 13q3 18 25 18h26l133 483h-20q-20 0 -17 19l3 12q3 19 24 19h66q11 0 14 -11l86 -458q0 -3 2 -4t5 0t5 4l267 458 q7 11 18 11h65q20 0 17 -19l-2 -12q-3 -19 -25 -19h-20l-56 -483h27q19 0 16 -18l-2 -13q-3 -18 -24 -18h-107q-19 0 -16 18l2 13q3 18 25 18h22l41 367q0 5 -3.5 5.5t-6.5 -3.5l-238 -406q-7 -12 -22 -12h-13z" />
<glyph unicode="&#x25fc;" horiz-adv-x="1433" d="M0 1434h1434v-1434h-1434v1434z" />
</font>
</defs>
</svg>
